<?xml version="1.0" standalone="no"?>
<!DOCTYPE svg PUBLIC "-//W3C//DTD SVG 20010904//EN"
 "http://www.w3.org/TR/2001/REC-SVG-20010904/DTD/svg10.dtd">
<svg version="1.0" xmlns="http://www.w3.org/2000/svg"
 width="1024.000000pt" height="1024.000000pt" viewBox="0 0 1024.000000 1024.000000"
 preserveAspectRatio="xMidYMid meet">

<g transform="translate(0.000000,1024.000000) scale(0.100000,-0.100000)"
fill="#000000" stroke="none">
<path d="M5010 9881 c0 -5 35 -24 78 -41 98 -41 155 -70 265 -132 90 -52 107
-65 60 -47 -128 50 -489 137 -688 165 -145 20 -361 24 -390 7 -19 -11 -18 -13
17 -27 20 -9 56 -20 81 -25 24 -6 65 -19 90 -30 26 -11 47 -16 47 -11 0 13 37
13 44 1 4 -5 -4 -7 -16 -3 -16 4 -20 1 -16 -9 5 -12 -27 -14 -191 -16 -220 -3
-379 -21 -528 -58 -190 -48 -381 -138 -405 -191 -20 -42 -2 -47 114 -30 58 9
136 16 173 16 l67 0 -76 -52 c-42 -28 -116 -88 -164 -133 -76 -71 -104 -89
-224 -147 -230 -111 -499 -275 -693 -421 -238 -180 -552 -483 -728 -702 -115
-142 -296 -415 -386 -580 -233 -429 -405 -952 -466 -1417 -60 -464 -27 -1024
91 -1519 l25 -106 -30 -49 c-43 -70 -71 -158 -71 -225 l0 -58 -86 -40 c-187
-88 -327 -209 -392 -339 -34 -70 -37 -83 -39 -171 -1 -82 -5 -105 -31 -161
-104 -232 -102 -364 10 -521 10 -14 3 -26 -35 -70 -82 -93 -108 -210 -73 -317
33 -97 285 -401 547 -657 558 -546 1215 -962 1934 -1225 565 -207 986 -300
1532 -340 248 -19 848 -8 1078 19 703 82 1282 255 1895 567 529 268 929 561
1365 998 212 213 327 342 487 547 209 269 406 595 444 737 31 116 -7 246 -95
324 -39 34 -546 338 -833 498 -32 17 -58 36 -58 41 0 5 14 43 31 86 192 475
293 1051 275 1561 -21 612 -164 1179 -431 1712 -388 772 -1054 1425 -1837
1799 -257 123 -486 205 -609 218 l-56 6 -5 101 c-6 112 -35 209 -82 271 -31
41 -62 48 -52 13 34 -117 46 -182 46 -250 l0 -79 -50 38 c-35 27 -49 45 -50
63 0 34 -24 109 -50 161 -38 74 -190 218 -219 208 -5 -2 18 -40 51 -84 60 -79
100 -152 114 -210 l7 -30 -37 28 c-207 159 -421 267 -633 322 -100 26 -143 31
-143 16z m-293 -147 c-3 -3 -12 -4 -19 -1 -8 3 -5 6 6 6 11 1 17 -2 13 -5z
m-12 -54 c3 -6 -1 -7 -9 -4 -18 7 -21 14 -7 14 6 0 13 -4 16 -10z m-472 -67
c-7 -2 -19 -2 -25 0 -7 3 -2 5 12 5 14 0 19 -2 13 -5z m320 0 c-7 -2 -19 -2
-25 0 -7 3 -2 5 12 5 14 0 19 -2 13 -5z m-420 -10 c-7 -2 -19 -2 -25 0 -7 3
-2 5 12 5 14 0 19 -2 13 -5z m630 -10 c-7 -2 -19 -2 -25 0 -7 3 -2 5 12 5 14
0 19 -2 13 -5z m-766 -9 c-3 -3 -12 -4 -19 -1 -8 3 -5 6 6 6 11 1 17 -2 13 -5z
m1570 -50 c-3 -3 -12 -4 -19 -1 -8 3 -5 6 6 6 11 1 17 -2 13 -5z m108 -52 c-3
-3 -11 0 -18 7 -9 10 -8 11 6 5 10 -3 15 -9 12 -12z m-1689 -51 c-6 -9 -46
-22 -46 -15 0 3 10 9 23 14 29 11 29 11 23 1z m664 -51 c-8 -5 -19 -10 -25
-10 -5 0 -3 5 5 10 8 5 20 10 25 10 6 0 3 -5 -5 -10z m715 -14 c112 -18 166
-30 280 -62 96 -28 243 -98 252 -121 4 -9 9 -10 18 -3 16 13 80 -29 80 -53 0
-10 21 -42 47 -71 105 -119 160 -220 173 -319 12 -85 -22 -213 -114 -436 -28
-69 -50 -129 -48 -135 2 -5 22 8 46 29 23 21 41 34 40 29 -1 -5 3 -22 9 -37
15 -35 15 -40 2 -32 -5 3 -10 1 -10 -4 0 -6 6 -11 14 -11 19 0 35 -50 25 -75
-7 -19 -8 -19 -8 3 -1 13 -5 20 -11 17 -6 -4 -10 -3 -9 2 3 18 -3 47 -8 36 -2
-7 -11 -13 -19 -13 -9 0 -13 -4 -10 -9 8 -13 -4 -42 -15 -35 -17 10 -9 -88 17
-216 3 -18 2 -21 -5 -11 -6 10 -12 -2 -21 -41 -11 -49 -11 -59 4 -79 9 -13 16
-27 16 -32 0 -5 -18 18 -41 52 -22 33 -45 61 -50 61 -11 0 -12 -13 -1 -25 14
-16 63 -157 52 -150 -5 3 -11 14 -11 23 -1 9 -5 -14 -10 -52 -6 -52 -4 -78 6
-103 8 -18 10 -33 5 -33 -6 0 -10 -10 -10 -22 0 -13 0 -40 0 -62 0 -21 2 -48
6 -59 3 -11 2 -17 -3 -14 -12 8 -47 -118 -37 -135 6 -9 3 -9 -10 1 -10 8 -15
23 -13 33 3 10 1 18 -4 18 -10 0 -10 0 -14 -48 -2 -21 -11 -39 -24 -48 -23
-17 -28 -40 -8 -47 7 -3 5 -6 -5 -6 -10 -1 -18 4 -18 10 0 5 -5 7 -11 3 -7 -4
-9 -21 -5 -45 4 -24 2 -39 -4 -39 -5 0 -10 -6 -10 -13 0 -7 -8 -24 -17 -37
-10 -14 -17 -34 -15 -45 1 -12 -4 -7 -12 11 -31 70 -49 38 -22 -39 12 -32 12
-36 0 -26 -11 9 -14 8 -14 -1 0 -8 -3 -11 -6 -7 -4 3 -15 -4 -24 -16 -13 -16
-15 -24 -7 -30 7 -4 0 -5 -15 -1 -29 7 -36 -4 -16 -24 7 -7 9 -12 6 -12 -4 0
-3 -14 2 -30 5 -19 5 -28 -1 -25 -5 4 -9 13 -9 21 0 14 -2 13 -16 0 -8 -9 -24
-16 -34 -16 -25 0 -33 -29 -15 -57 9 -13 12 -22 8 -21 -11 4 -53 -39 -53 -54
0 -7 -21 -32 -46 -56 -26 -23 -44 -35 -40 -27 3 9 6 23 6 31 0 8 8 14 18 14
10 0 13 3 6 8 -6 4 -14 37 -17 74 -11 125 -75 200 -251 297 -105 59 -268 122
-283 109 -17 -13 -17 -41 0 -35 13 5 192 -85 233 -118 25 -20 25 -21 5 -21
-12 0 -21 7 -21 14 0 12 -3 12 -15 2 -12 -10 -15 -9 -16 6 0 11 -3 14 -5 7 -4
-8 -27 -10 -72 -7 -65 4 -178 13 -191 16 -3 1 -26 -5 -51 -12 -25 -7 -49 -13
-54 -11 -5 1 -5 -6 -2 -16 6 -15 4 -14 -16 3 -18 15 -20 16 -9 1 16 -20 6 -36
-11 -19 -7 7 -17 12 -23 12 -5 0 -3 -5 5 -11 12 -8 8 -10 -17 -7 -19 3 -30 0
-26 -5 4 -6 -4 -7 -19 -4 -15 4 -34 0 -49 -10 -13 -9 -19 -10 -11 -3 20 22 14
30 -14 20 -14 -6 -31 -10 -37 -9 -7 0 15 10 48 23 33 13 67 26 75 30 22 9 70
90 76 128 8 49 -31 145 -77 189 -54 53 -88 55 -176 13 -40 -19 -73 -39 -73
-45 0 -13 40 -11 96 6 79 24 89 21 125 -37 17 -29 34 -71 37 -94 7 -63 -27
-85 -169 -112 -225 -41 -297 -47 -378 -29 -89 21 -155 58 -188 108 -54 82 -16
183 137 354 93 105 145 178 180 252 50 105 72 264 35 249 -7 -2 -17 0 -22 5
-5 5 -10 -4 -11 -22 -1 -17 -16 -67 -33 -111 -23 -59 -34 -77 -41 -67 -7 10
-8 9 -4 -6 7 -25 -39 -107 -91 -160 -55 -57 -145 -171 -185 -235 -77 -123 -88
-204 -38 -284 17 -26 42 -58 57 -72 20 -19 22 -24 9 -24 -30 0 -92 -38 -126
-76 -50 -57 -67 -105 -70 -199 -2 -41 -4 -45 -10 -25 -4 14 -9 21 -10 15 -1
-5 -5 -1 -10 10 -8 18 -9 18 -9 -5 -1 -20 -3 -22 -11 -10 -9 13 -10 13 -11 0
-1 -24 -28 81 -29 115 -1 25 -3 27 -9 10 -5 -11 -6 -25 -4 -31 2 -6 -2 -11 -9
-11 -11 0 -11 10 0 58 16 66 11 98 -12 77 -8 -7 -12 -16 -10 -20 2 -4 0 -9 -4
-12 -10 -6 -8 31 3 57 4 10 2 23 -5 32 -15 18 -34 20 -24 3 5 -9 4 -10 -3 -3
-9 9 -41 241 -46 335 -1 19 4 96 12 170 14 147 13 195 -13 370 -10 63 -18 163
-19 222 l-2 107 34 35 c72 74 149 72 334 -6 116 -50 127 -53 216 -54 l95 -2
22 -51 c14 -32 32 -55 48 -63 33 -14 41 -6 25 23 -21 41 -39 122 -46 212 -3
53 -10 87 -17 87 -6 0 -21 -15 -34 -34 l-23 -34 -62 14 c-34 8 -111 39 -172
69 -191 93 -300 110 -398 62 -28 -15 -53 -25 -54 -23 -2 1 4 54 12 117 15 118
48 256 84 346 39 100 122 254 156 292 85 93 230 184 372 233 l102 35 -43 -56
c-63 -81 -76 -112 -76 -181 0 -63 21 -100 55 -100 9 0 54 33 100 73 191 164
433 278 650 307 99 13 324 11 420 -4z m-915 -1 c0 -2 -20 -18 -45 -35 -25 -17
-45 -29 -45 -26 0 4 80 64 88 66 1 0 2 -2 2 -5z m1404 -11 c3 -8 2 -12 -4 -9
-6 3 -10 10 -10 16 0 14 7 11 14 -7z m41 -4 c3 -5 1 -10 -4 -10 -6 0 -11 5
-11 10 0 6 2 10 4 10 3 0 8 -4 11 -10z m-150 -10 c3 -6 -1 -7 -9 -4 -18 7 -21
14 -7 14 6 0 13 -4 16 -10z m-1845 -24 c0 -2 -7 -7 -16 -10 -8 -3 -12 -2 -9 4
6 10 25 14 25 6z m1941 -33 c13 -16 12 -17 -3 -4 -10 7 -18 15 -18 17 0 8 8 3
21 -13z m-1511 -17 c0 -2 -8 -10 -17 -17 -16 -13 -17 -12 -4 4 13 16 21 21 21
13z m1551 -13 c13 -16 12 -17 -3 -4 -10 7 -18 15 -18 17 0 8 8 3 21 -13z
m-2211 -26 c0 -2 -10 -12 -22 -23 l-23 -19 19 23 c18 21 26 27 26 19z m700 0
c0 -2 -10 -12 -22 -23 l-23 -19 19 23 c18 21 26 27 26 19z m-630 -10 c0 -2
-12 -14 -27 -28 l-28 -24 24 28 c23 25 31 32 31 24z m2290 -21 c0 -2 -7 -7
-16 -10 -8 -3 -12 -2 -9 4 6 10 25 14 25 6z m-2370 -50 c0 -2 -8 -10 -17 -17
-16 -13 -17 -12 -4 4 13 16 21 21 21 13z m610 0 c0 -2 -8 -10 -17 -17 -16 -13
-17 -12 -4 4 13 16 21 21 21 13z m-650 -40 c0 -2 -8 -10 -17 -17 -16 -13 -17
-12 -4 4 13 16 21 21 21 13z m2525 -46 c10 -11 16 -20 13 -20 -3 0 -13 9 -23
20 -10 11 -16 20 -13 20 3 0 13 -9 23 -20z m306 3 c13 -16 12 -17 -3 -4 -10 7
-18 15 -18 17 0 8 8 3 21 -13z m50 -40 c13 -16 12 -17 -3 -4 -10 7 -18 15 -18
17 0 8 8 3 21 -13z m-306 -13 c10 -11 16 -20 13 -20 -3 0 -13 9 -23 20 -10 11
-16 20 -13 20 3 0 13 -9 23 -20z m140 -10 c10 -11 16 -20 13 -20 -3 0 -13 9
-23 20 -10 11 -16 20 -13 20 3 0 13 -9 23 -20z m280 -80 c21 -22 37 -40 34
-40 -3 0 -23 18 -44 40 -21 22 -37 40 -34 40 3 0 23 -18 44 -40z m-3175 -5 c0
-1 -11 -12 -26 -26 -18 -17 -23 -19 -18 -6 3 9 10 17 16 17 5 0 7 4 4 8 -3 5
1 9 9 9 8 0 15 -1 15 -2z m86 -176 c-31 -91 -51 -176 -71 -299 -3 -19 -8 -127
-11 -240 l-5 -205 -28 3 c-69 7 -148 -57 -182 -146 -22 -60 -30 -208 -16 -302
27 -176 133 -423 247 -576 l60 -80 4 -95 c7 -148 51 -348 101 -456 14 -31 43
-82 64 -113 l39 -57 -38 -12 c-72 -21 -138 -122 -182 -276 -12 -44 -27 -83
-31 -86 -5 -4 -32 -9 -61 -13 -28 -3 -110 -26 -181 -50 -72 -24 -164 -52 -205
-62 -588 -134 -1054 -305 -1311 -480 -107 -73 -240 -185 -286 -241 -20 -24
-38 -41 -41 -38 -12 12 -30 285 -31 490 -1 187 9 413 24 505 2 14 6 48 10 75
30 252 132 631 240 896 57 140 181 388 260 519 251 417 642 835 1043 1115 93
65 322 205 334 205 5 0 13 -11 18 -25 14 -36 37 -31 60 14 23 46 60 77 104 89
17 5 47 19 66 30 19 12 36 20 37 18 2 -2 -12 -50 -31 -107z m3268 42 c-2 -3
-12 3 -22 13 -16 17 -16 18 5 5 12 -7 20 -15 17 -18z m-209 -11 c10 -11 16
-20 13 -20 -3 0 -13 9 -23 20 -10 11 -16 20 -13 20 3 0 13 -9 23 -20z m315
-14 c0 -2 -9 -6 -20 -9 -11 -3 -20 -1 -20 4 0 5 9 9 20 9 11 0 20 -2 20 -4z
m74 -133 c93 -48 320 -213 467 -339 735 -631 1184 -1513 1279 -2509 12 -127
11 -517 -1 -650 -55 -590 -238 -1119 -557 -1610 -76 -118 -185 -266 -256 -350
-86 -102 -218 -245 -226 -245 -4 0 -10 27 -13 60 -4 34 -17 91 -30 129 l-22
68 39 119 c37 112 39 127 40 244 1 112 -2 131 -23 178 -13 30 -44 79 -67 109
-30 39 -42 62 -38 77 2 12 8 66 12 121 25 350 -84 770 -273 1055 -62 93 -199
233 -284 290 -82 55 -219 119 -401 187 -80 30 -186 74 -236 98 -83 40 -94 49
-144 117 -30 40 -96 114 -146 164 l-92 91 39 139 c21 76 41 150 44 164 2 14
20 92 40 172 19 80 35 153 35 162 0 20 -1 20 51 -4 224 -101 598 226 715 625
50 170 43 390 -16 506 -40 78 -134 159 -185 159 -19 0 -19 2 1 48 22 51 44
132 44 165 0 51 19 31 44 -46 10 -30 29 -15 65 54 30 55 35 76 39 149 6 118
-31 249 -87 314 -16 18 -14 19 48 12 36 -4 79 -15 95 -23z m-513 -40 c13 -16
12 -17 -3 -4 -10 7 -18 15 -18 17 0 8 8 3 21 -13z m110 -50 c13 -16 12 -17 -3
-4 -10 7 -18 15 -18 17 0 8 8 3 21 -13z m-63 -28 c-3 -3 -9 2 -12 12 -6 14 -5
15 5 6 7 -7 10 -15 7 -18z m123 8 c13 -16 12 -17 -3 -4 -10 7 -18 15 -18 17 0
8 8 3 21 -13z m-107 -39 c3 -8 2 -12 -4 -9 -6 3 -10 10 -10 16 0 14 7 11 14
-7z m76 6 c0 -5 -2 -10 -4 -10 -3 0 -8 5 -11 10 -3 6 -1 10 4 10 6 0 11 -4 11
-10z m199 -30 c0 -10 -3 -8 -9 5 -12 27 -12 43 0 25 5 -8 9 -22 9 -30z m-536
-15 c-3 -9 -8 -14 -10 -11 -3 3 -2 9 2 15 9 16 15 13 8 -4z m448 -22 c13 -16
12 -17 -3 -4 -10 7 -18 15 -18 17 0 8 8 3 21 -13z m-501 -72 c-5 -11 -15 -23
-21 -27 -6 -3 -3 5 6 20 20 30 30 35 15 7z m347 -28 c-3 -10 -5 -4 -5 12 0 17
2 24 5 18 2 -7 2 -21 0 -30z m234 10 c13 -16 12 -17 -3 -4 -10 7 -18 15 -18
17 0 8 8 3 21 -13z m-284 -45 c-3 -7 -5 -2 -5 12 0 14 2 19 5 13 2 -7 2 -19 0
-25z m-249 -23 c-3 -3 -9 2 -12 12 -6 14 -5 15 5 6 7 -7 10 -15 7 -18z m299
-67 c-3 -8 -6 -5 -6 6 -1 11 2 17 5 13 3 -3 4 -12 1 -19z m-328 -71 c4 1 8 -5
8 -13 0 -7 -2 -14 -5 -14 -7 0 -41 45 -41 55 0 6 7 1 15 -10 8 -11 19 -19 23
-18z m108 11 c-3 -8 -6 -5 -6 6 -1 11 2 17 5 13 3 -3 4 -12 1 -19z m-50 -70
c-3 -7 -5 -2 -5 12 0 14 2 19 5 13 2 -7 2 -19 0 -25z m-68 -52 c-3 -3 -11 5
-18 17 -13 21 -12 21 5 5 10 -10 16 -20 13 -22z m-61 -7 c-3 -8 -7 -3 -11 10
-4 17 -3 21 5 13 5 -5 8 -16 6 -23z m109 -31 c-3 -8 -6 -5 -6 6 -1 11 2 17 5
13 3 -3 4 -12 1 -19z m294 -21 c-10 -9 -11 -8 -5 6 3 10 9 15 12 12 3 -3 0
-11 -7 -18z m-384 -29 c-3 -8 -6 -5 -6 6 -1 11 2 17 5 13 3 -3 4 -12 1 -19z
m120 -10 c-3 -8 -6 -5 -6 6 -1 11 2 17 5 13 3 -3 4 -12 1 -19z m-2860 -8 c28
-10 30 -15 44 -105 8 -52 12 -95 8 -95 -3 0 -16 12 -30 26 -30 32 -86 67 -100
62 -10 -3 31 -60 96 -133 15 -16 36 -48 47 -70 20 -38 20 -45 8 -181 -7 -77
-11 -184 -8 -238 l5 -99 -63 119 c-73 137 -110 242 -128 363 -24 154 -8 265
45 326 35 39 34 39 76 25z m3311 -72 c72 -44 112 -151 112 -299 0 -167 -74
-373 -190 -531 -88 -120 -275 -258 -349 -258 -35 0 -93 17 -115 33 -16 12 -18
27 -17 109 2 109 -8 128 -46 84 -12 -15 -23 -23 -23 -18 0 5 7 15 15 22 8 7
14 24 13 39 -1 15 2 33 7 40 5 9 4 12 -1 8 -6 -3 -11 21 -12 57 -2 47 2 67 13
76 8 7 15 19 15 26 0 8 4 14 9 14 5 0 11 7 15 15 7 18 19 101 20 132 0 13 8
25 18 29 23 7 51 63 69 134 21 89 73 151 194 236 72 50 166 86 200 77 11 -3
35 -14 53 -25z m-408 -52 c0 -2 -8 -10 -17 -17 -16 -13 -17 -12 -4 4 13 16 21
21 21 13z m-170 -96 c0 -5 -2 -10 -4 -10 -3 0 -8 5 -11 10 -3 6 -1 10 4 10 6
0 11 -4 11 -10z m-93 -137 c-4 -3 -1 -13 6 -22 11 -14 10 -14 -5 -2 -16 12
-16 31 -1 31 4 0 3 -3 0 -7z m47 -29 c3 -8 2 -12 -4 -9 -6 3 -10 10 -10 16 0
14 7 11 14 -7z m29 -67 c3 -8 -1 -14 -8 -14 -7 0 -11 6 -8 14 3 7 6 13 8 13 2
0 5 -6 8 -13z m-63 -17 c6 -11 8 -20 6 -20 -3 0 -10 9 -16 20 -6 11 -8 20 -6
20 3 0 10 -9 16 -20z m137 -2 c-3 -8 -6 -5 -6 6 -1 11 2 17 5 13 3 -3 4 -12 1
-19z m-147 -29 c0 -6 -4 -7 -10 -4 -5 3 -10 11 -10 16 0 6 5 7 10 4 6 -3 10
-11 10 -16z m34 -15 c3 -8 2 -12 -4 -9 -6 3 -10 10 -10 16 0 14 7 11 14 -7z
m76 -38 c0 -12 -5 -7 -19 24 -11 24 -11 24 3 6 9 -11 16 -24 16 -30z m-203
-218 c-3 -8 -6 -5 -6 6 -1 11 2 17 5 13 3 -3 4 -12 1 -19z m-34 -23 c-3 -9 -8
-14 -10 -11 -3 3 -2 9 2 15 9 16 15 13 8 -4z m-3 -60 c7 -9 8 -15 2 -15 -5 0
-12 7 -16 15 -3 8 -4 15 -2 15 2 0 9 -7 16 -15z m23 -30 c-3 -9 -8 -14 -10
-11 -3 3 -2 9 2 15 9 16 15 13 8 -4z m-22 -82 c13 -16 12 -17 -3 -4 -10 7 -18
15 -18 17 0 8 8 3 21 -13z m146 -55 c-3 -8 -6 -5 -6 6 -1 11 2 17 5 13 3 -3 4
-12 1 -19z m-2063 -16 c3 -5 -1 -9 -9 -9 -8 0 -12 4 -9 9 3 4 7 8 9 8 2 0 6
-4 9 -8z m-397 -44 c-3 -7 -5 -2 -5 12 0 14 2 19 5 13 2 -7 2 -19 0 -25z
m2447 -2 c-3 -15 -8 -25 -11 -23 -2 3 -1 17 3 31 3 15 8 25 11 23 2 -3 1 -17
-3 -31z m-2084 19 c0 -2 -10 -9 -22 -15 -22 -11 -22 -10 -4 4 21 17 26 19 26
11z m1364 -26 c14 -11 23 -25 20 -30 -4 -6 -10 -6 -18 0 -7 6 -17 7 -21 3 -5
-4 -5 -1 0 7 5 9 2 19 -10 28 -11 7 -14 13 -8 13 6 0 22 -9 37 -21z m-1219 -7
c-3 -3 -11 0 -18 7 -9 10 -8 11 6 5 10 -3 15 -9 12 -12z m566 1 c12 -16 12
-17 -2 -6 -9 7 -20 9 -24 5 -5 -4 -5 -1 -1 6 9 16 11 15 27 -5z m1109 -3 c0
-5 -5 -10 -11 -10 -5 0 -7 5 -4 10 3 6 8 10 11 10 2 0 4 -4 4 -10z m190 -45
c0 -5 -5 -3 -10 5 -5 8 -10 20 -10 25 0 6 5 3 10 -5 5 -8 10 -19 10 -25z
m-2368 -21 c-2 -55 -11 -54 -10 0 0 26 3 44 6 41 3 -3 5 -21 4 -41z m368 26
c-6 -11 -13 -20 -16 -20 -2 0 0 9 6 20 6 11 13 20 16 20 2 0 0 -9 -6 -20z
m277 14 c-3 -3 -12 -4 -19 -1 -8 3 -5 6 6 6 11 1 17 -2 13 -5z m1070 -26 c-3
-8 -6 -5 -6 6 -1 11 2 17 5 13 3 -3 4 -12 1 -19z m-1287 8 c0 -2 -8 -10 -17
-17 -16 -13 -17 -12 -4 4 13 16 21 21 21 13z m1400 -65 c0 -3 -8 3 -16 14 -8
11 -19 19 -23 18 -4 -1 -8 8 -8 19 -2 17 3 14 23 -13 13 -18 24 -35 24 -38z
m-589 42 c13 -16 12 -17 -3 -4 -10 7 -18 15 -18 17 0 8 8 3 21 -13z m1020 -20
c13 -16 12 -17 -3 -4 -10 7 -18 15 -18 17 0 8 8 3 21 -13z m-27 -39 c3 -8 2
-12 -4 -9 -6 3 -10 10 -10 16 0 14 7 11 14 -7z m-1557 -26 c-3 -8 -6 -5 -6 6
-1 11 2 17 5 13 3 -3 4 -12 1 -19z m1010 6 c-3 -3 -12 -4 -19 -1 -8 3 -5 6 6
6 11 1 17 -2 13 -5z m83 -40 c0 -2 -9 0 -20 6 -11 6 -20 13 -20 16 0 2 9 0 20
-6 11 -6 20 -13 20 -16z m327 -6 c-3 -8 -6 -5 -6 6 -1 11 2 17 5 13 3 -3 4
-12 1 -19z m93 -13 c13 -14 21 -25 18 -25 -2 0 -15 11 -28 25 -13 14 -21 25
-18 25 2 0 15 -11 28 -25z m105 -5 c3 -6 -1 -7 -9 -4 -18 7 -21 14 -7 14 6 0
13 -4 16 -10z m-489 -35 c1 -16 -2 -35 -7 -40 -4 -6 -4 -16 0 -23 4 -7 2 -45
-6 -85 -7 -40 -14 -77 -15 -83 -1 -6 -10 -9 -21 -6 -16 4 -18 1 -13 -16 8 -23
-21 -65 -37 -55 -6 4 -8 -1 -4 -11 4 -10 3 -15 -3 -11 -9 6 -35 -41 -32 -57 1
-4 -9 -15 -23 -24 -24 -16 -37 -43 -13 -28 7 4 8 3 4 -4 -4 -6 -14 -8 -23 -5
-12 5 -15 2 -10 -10 3 -9 2 -19 -3 -22 -5 -3 -8 -11 -6 -18 1 -7 1 -9 -1 -4
-3 4 -10 4 -16 0 -7 -3 -3 3 7 15 21 24 11 29 -16 8 -10 -7 -15 -16 -11 -20 4
-4 0 -4 -10 0 -16 6 -21 17 -18 37 1 5 -3 6 -9 2 -6 -4 -8 -15 -5 -25 3 -10 1
-21 -5 -25 -6 -4 -8 -16 -5 -28 5 -18 4 -19 -4 -7 -8 11 -13 12 -19 3 -4 -7
-19 -10 -34 -8 -19 4 -30 0 -37 -12 -7 -13 -10 -14 -11 -4 0 8 -13 -5 -30 -27
-30 -41 -30 -41 -87 -38 -32 2 -60 5 -63 6 -3 1 -12 3 -20 4 -8 0 -15 8 -15
16 0 8 -8 14 -18 14 -9 -1 -14 2 -11 7 5 9 -11 13 -31 9 -5 -1 -7 2 -3 5 15
15 -11 43 -34 38 -13 -3 5 9 39 26 59 31 131 87 121 96 -2 2 -24 -3 -48 -13
-36 -13 -81 -17 -230 -17 -102 0 -201 4 -220 8 -76 17 -110 20 -110 9 0 -16
80 -81 117 -94 18 -7 33 -15 33 -20 0 -4 -7 -4 -17 -1 -11 4 -14 3 -9 -5 5 -8
2 -10 -8 -6 -9 3 -13 11 -9 17 3 6 1 7 -5 3 -9 -5 -9 -13 -2 -27 12 -22 4 -43
-12 -33 -7 4 -6 9 1 14 9 5 7 10 -4 20 -13 11 -14 10 -9 -5 6 -14 4 -16 -7
-10 -12 8 -12 6 -1 -8 20 -23 7 -38 -23 -27 -15 6 -25 6 -25 0 0 -5 -12 -5
-29 0 -19 5 -31 5 -33 -2 -2 -5 -16 0 -30 12 -15 11 -25 27 -22 34 3 8 -2 13
-13 13 -30 0 -63 15 -57 25 4 6 -2 5 -14 -1 -17 -9 -22 -8 -27 9 -4 11 -11 18
-16 14 -5 -3 -9 -2 -8 3 3 16 -13 53 -21 48 -10 -6 -23 48 -22 87 1 34 -17 48
-25 19 -3 -12 -9 -21 -14 -21 -5 0 -4 12 1 28 10 26 10 26 -6 7 -13 -16 -16
-17 -11 -3 4 10 0 32 -7 49 -8 20 -10 45 -6 70 4 21 3 39 -1 39 -5 0 -5 8 0
18 5 9 14 32 20 50 9 29 8 31 -8 23 -12 -7 -22 -6 -28 0 -14 14 -4 51 13 45 8
-3 11 0 8 9 -4 9 1 13 15 12 23 -1 29 -32 9 -40 -7 -3 1 -6 18 -6 66 -2 173
-32 179 -51 7 -23 58 -73 88 -88 109 -53 156 -63 310 -63 243 1 397 50 580
185 49 37 70 59 74 80 6 29 6 29 66 22 33 -3 71 -13 83 -21 31 -20 34 -19 34
11 0 21 4 25 23 22 17 -2 22 -10 23 -33z m61 3 c-3 -7 -5 -2 -5 12 0 14 2 19
5 13 2 -7 2 -19 0 -25z m-1826 -24 c-5 -16 -10 -21 -10 -12 -1 18 10 51 15 45
2 -1 -1 -16 -5 -33z m2160 -21 c13 -16 12 -17 -3 -4 -10 7 -18 15 -18 17 0 8
8 3 21 -13z m-761 -11 c0 -13 -187 -98 -255 -116 -188 -49 -405 -43 -522 15
-35 16 -63 33 -63 37 0 4 42 5 92 2 233 -14 628 23 746 69 1 1 2 -3 2 -7z
m-1357 -27 c-7 -21 -12 -19 -10 4 0 11 5 18 9 15 4 -3 5 -11 1 -19z m1787 11
c0 -2 -8 -10 -17 -17 -16 -13 -17 -12 -4 4 13 16 21 21 21 13z m280 -51 c13
-14 21 -25 18 -25 -2 0 -15 11 -28 25 -13 14 -21 25 -18 25 2 0 15 -11 28 -25z
m173 10 c-3 -9 -8 -14 -10 -11 -3 3 -2 9 2 15 9 16 15 13 8 -4z m-213 -25 c6
-11 8 -20 6 -20 -3 0 -10 9 -16 20 -6 11 -8 20 -6 20 3 0 10 -9 16 -20z m181
-33 c-10 -9 -11 -8 -5 6 3 10 9 15 12 12 3 -3 0 -11 -7 -18z m-2174 -52 c0 -8
-4 -12 -9 -9 -5 3 -6 10 -3 15 9 13 12 11 12 -6z m2153 11 c0 -2 -8 -10 -17
-17 -16 -13 -17 -12 -4 4 13 16 21 21 21 13z m-30 -40 c0 -2 -8 -10 -17 -17
-16 -13 -17 -12 -4 4 13 16 21 21 21 13z m-2057 -66 c-7 -27 -13 -25 -11 4 1
14 5 23 9 20 4 -2 5 -13 2 -24z m50 15 c-3 -9 -8 -14 -10 -11 -3 3 -2 9 2 15
9 16 15 13 8 -4z m2063 -102 c-31 -117 -236 -739 -308 -938 -88 -244 -141
-457 -124 -500 6 -16 9 -17 20 -4 15 16 115 268 158 399 11 31 20 -64 16 -153
-5 -106 -40 -229 -120 -422 -52 -125 -59 -141 -151 -317 l-55 -108 -32 57
c-18 31 -61 101 -96 155 -36 54 -62 103 -59 109 4 5 2 8 -4 7 -5 -2 -34 27
-63 63 -100 123 -180 180 -438 309 -179 89 -210 107 -283 158 -41 30 -46 36
-35 51 12 14 11 15 -4 2 -16 -12 -24 -8 -72 33 -97 83 -217 231 -280 346 -62
115 -84 185 -87 291 -4 93 -3 95 13 69 9 -15 61 -71 117 -125 61 -60 116 -125
140 -164 61 -102 158 -228 241 -313 109 -112 132 -103 41 17 -52 68 -131 184
-131 192 0 3 6 1 13 -4 6 -6 20 -9 30 -8 9 2 17 -1 17 -6 0 -5 3 -8 8 -7 4 1
25 -7 47 -19 66 -34 296 -54 346 -29 19 9 27 10 23 3 -5 -8 -3 -8 7 1 7 6 22
12 34 12 123 0 483 187 643 333 71 66 49 73 -35 11 -82 -61 -267 -176 -348
-216 -50 -25 -151 -63 -170 -63 -5 0 -14 -4 -18 -10 -5 -6 -7 -5 -5 4 2 7 30
22 61 31 92 29 154 62 282 150 161 112 232 165 296 225 84 78 202 215 263 307
92 135 121 175 125 172 2 -2 -8 -47 -23 -101z m-2092 61 c4 -10 2 -13 -6 -8
-8 5 -9 1 -4 -12 5 -14 4 -16 -4 -8 -6 6 -8 18 -4 27 8 21 10 21 18 1z m1504
-39 c-3 -3 -9 2 -12 12 -6 14 -5 15 5 6 7 -7 10 -15 7 -18z m412 -18 c0 -2
-12 -14 -27 -28 l-28 -24 24 28 c23 25 31 32 31 24z m-1771 -67 c0 -9 -4 -8
-9 5 -5 11 -9 27 -9 35 0 9 4 8 9 -5 5 -11 9 -27 9 -35z m-56 0 c-3 -12 -8
-19 -11 -16 -5 6 5 36 12 36 2 0 2 -9 -1 -20z m-178 -20 c-3 -5 -14 -10 -23
-9 -14 0 -13 2 3 9 27 11 27 11 20 0z m45 -29 c0 -9 -5 -23 -11 -31 -8 -12 -9
-10 -4 8 4 13 1 29 -6 38 -10 12 -9 13 5 8 9 -3 16 -14 16 -23z m190 15 c0 -2
-8 -10 -17 -17 -16 -13 -17 -12 -4 4 13 16 21 21 21 13z m-292 -23 c-9 -10
-25 -36 -36 -58 -12 -22 -21 -36 -22 -32 -1 21 54 107 68 107 3 0 -2 -8 -10
-17z m260 -44 c-3 -8 -7 -3 -11 10 -4 17 -3 21 5 13 5 -5 8 -16 6 -23z m535
24 c-7 -2 -21 -2 -30 0 -10 3 -4 5 12 5 17 0 24 -2 18 -5z m177 3 c0 -2 -7 -6
-15 -10 -8 -3 -15 -1 -15 4 0 6 7 10 15 10 8 0 15 -2 15 -4z m-638 -18 c-5 -7
-12 -22 -15 -33 -5 -20 -5 -20 -6 1 0 11 4 25 11 32 16 16 23 15 10 0z m718
-14 c0 -2 -9 0 -20 6 -11 6 -20 13 -20 16 0 2 9 0 20 -6 11 -6 20 -13 20 -16z
m860 23 c0 -2 -10 -12 -22 -23 l-23 -19 19 23 c18 21 26 27 26 19z m-1683 -29
c-3 -8 -6 -5 -6 6 -1 11 2 17 5 13 3 -3 4 -12 1 -19z m1244 -25 c13 -16 12
-17 -3 -4 -10 7 -18 15 -18 17 0 8 8 3 21 -13z m-1420 -40 c-12 -20 -14 -14
-5 12 4 9 9 14 11 11 3 -2 0 -13 -6 -23z m203 11 c3 -8 2 -12 -4 -9 -6 3 -10
10 -10 16 0 14 7 11 14 -7z m1576 12 c0 -2 -8 -10 -17 -17 -16 -13 -17 -12 -4
4 13 16 21 21 21 13z m-1492 -41 c-3 -3 -9 2 -12 12 -6 14 -5 15 5 6 7 -7 10
-15 7 -18z m109 -17 c-3 -8 -6 -5 -6 6 -1 11 2 17 5 13 3 -3 4 -12 1 -19z
m-400 -35 c-3 -10 -5 -2 -5 17 0 19 2 27 5 18 2 -10 2 -26 0 -35z m1197 21 c3
-8 2 -12 -4 -9 -6 3 -10 10 -10 16 0 14 7 11 14 -7z m-1327 -16 c-3 -8 -6 -5
-6 6 -1 11 2 17 5 13 3 -3 4 -12 1 -19z m1584 -15 c13 -16 12 -17 -3 -4 -10 7
-18 15 -18 17 0 8 8 3 21 -13z m-41 -18 c14 -19 14 -19 -2 -6 -10 7 -18 18
-18 24 0 6 1 8 3 6 1 -2 9 -13 17 -24z m916 -7 l29 -33 -32 29 c-31 28 -38 36
-30 36 2 0 16 -15 33 -32z m-1609 0 c-3 -8 -6 -5 -6 6 -1 11 2 17 5 13 3 -3 4
-12 1 -19z m1476 -33 c-3 -9 -8 -14 -10 -11 -3 3 -2 9 2 15 9 16 15 13 8 -4z
m-2346 -112 c-2 -21 -4 -4 -4 37 0 41 2 58 4 38 2 -21 2 -55 0 -75z m1080 85
c-3 -8 -6 -5 -6 6 -1 11 2 17 5 13 3 -3 4 -12 1 -19z m1453 -3 c13 -14 21 -25
18 -25 -2 0 -15 11 -28 25 -13 14 -21 25 -18 25 2 0 15 -11 28 -25z m-2373
-17 c-3 -8 -6 -5 -6 6 -1 11 2 17 5 13 3 -3 4 -12 1 -19z m-230 -50 c-3 -7 -5
-2 -5 12 0 14 2 19 5 13 2 -7 2 -19 0 -25z m2644 15 c13 -16 12 -17 -3 -4 -10
7 -18 15 -18 17 0 8 8 3 21 -13z m-2681 -7 c0 -2 -8 -10 -17 -17 -16 -13 -17
-12 -4 4 13 16 21 21 21 13z m287 -28 c-3 -8 -6 -5 -6 6 -1 11 2 17 5 13 3 -3
4 -12 1 -19z m2198 -50 c9 -16 15 -28 12 -28 -6 0 -57 77 -57 87 0 7 11 -7 45
-59z m-75 -3 c-7 -25 -15 -44 -17 -42 -2 3 2 25 9 50 6 26 14 44 16 42 3 -2
-1 -25 -8 -50z m-2550 35 c0 -5 -2 -10 -4 -10 -3 0 -8 5 -11 10 -3 6 -1 10 4
10 6 0 11 -4 11 -10z m192 -24 c2 -19 0 -32 -4 -30 -8 5 -12 64 -4 64 2 0 6
-15 8 -34z m2678 4 c6 -11 8 -20 6 -20 -3 0 -10 9 -16 20 -6 11 -8 20 -6 20 3
0 10 -9 16 -20z m-3020 -20 c-8 -5 -22 -9 -30 -9 -10 0 -8 3 5 9 27 12 43 12
25 0z m137 -82 c-2 -18 -4 -4 -4 32 0 36 2 50 4 33 2 -18 2 -48 0 -65z m-190
66 c-3 -3 -12 -4 -19 -1 -8 3 -5 6 6 6 11 1 17 -2 13 -5z m3101 -19 c-3 -3 -9
2 -12 12 -6 14 -5 15 5 6 7 -7 10 -15 7 -18z m-1521 9 c-3 -3 -12 -4 -19 -1
-8 3 -5 6 6 6 11 1 17 -2 13 -5z m-1650 -10 c-3 -3 -12 -4 -19 -1 -8 3 -5 6 6
6 11 1 17 -2 13 -5z m530 -71 c-2 -16 -4 -3 -4 27 0 30 2 43 4 28 2 -16 2 -40
0 -55z m2403 42 c0 -5 -5 -3 -10 5 -5 8 -10 20 -10 25 0 6 5 3 10 -5 5 -8 10
-19 10 -25z m-2995 15 c-27 -12 -43 -12 -25 0 8 5 22 9 30 9 10 0 8 -3 -5 -9z
m824 -45 c0 -5 -6 1 -14 15 -8 14 -14 30 -14 35 0 6 6 -1 14 -15 8 -14 14 -29
14 -35z m2098 23 c-3 -8 -6 -5 -6 6 -1 11 2 17 5 13 3 -3 4 -12 1 -19z m453 7
c17 -9 30 -18 30 -20 0 -6 -52 16 -64 27 -16 13 3 9 34 -7z m-3453 -1 c-3 -3
-12 -4 -19 -1 -8 3 -5 6 6 6 11 1 17 -2 13 -5z m510 -46 c-2 -13 -4 -5 -4 17
-1 22 1 32 4 23 2 -10 2 -28 0 -40z m2826 32 c3 -11 1 -18 -4 -14 -5 3 -9 12
-9 20 0 20 7 17 13 -6z m-3376 4 c-3 -3 -12 -4 -19 -1 -8 3 -5 6 6 6 11 1 17
-2 13 -5z m-40 -10 c-3 -3 -12 -4 -19 -1 -8 3 -5 6 6 6 11 1 17 -2 13 -5z
m3090 -26 c-3 -8 -6 -5 -6 6 -1 11 2 17 5 13 3 -3 4 -12 1 -19z m548 1 c22
-10 29 -16 15 -13 -28 7 -80 33 -65 33 6 0 28 -9 50 -20z m-628 -21 c-3 -7 -5
-2 -5 12 0 14 2 19 5 13 2 -7 2 -19 0 -25z m-1556 -45 c43 -62 29 -53 -21 15
-24 31 -35 51 -26 43 10 -8 31 -34 47 -58z m2088 27 c0 -10 -3 -8 -9 5 -12 27
-12 43 0 25 5 -8 9 -22 9 -30z m-96 -2 c9 -31 2 -33 -11 -3 -6 14 -8 25 -3 25
5 0 11 -10 14 -22z m-3666 6 c-3 -3 -12 -4 -19 -1 -8 3 -5 6 6 6 11 1 17 -2
13 -5z m3963 -4 c8 -5 11 -10 5 -10 -5 0 -17 5 -25 10 -8 5 -10 10 -5 10 6 0
17 -5 25 -10z m-3253 -22 c-3 -8 -6 -5 -6 6 -1 11 2 17 5 13 3 -3 4 -12 1 -19z
m-792 2 c-27 -12 -43 -12 -25 0 8 5 22 9 30 9 10 0 8 -3 -5 -9z m1830 -8 c-3
-3 -11 0 -18 7 -9 10 -8 11 6 5 10 -3 15 -9 12 -12z m-1880 -2 c-3 -5 -12 -10
-18 -10 -7 0 -6 4 3 10 19 12 23 12 15 0z m3352 -12 c-3 -8 -6 -5 -6 6 -1 11
2 17 5 13 3 -3 4 -12 1 -19z m823 12 c8 -5 11 -10 5 -10 -5 0 -17 5 -25 10 -8
5 -10 10 -5 10 6 0 17 -5 25 -10z m-2235 -10 c13 -5 14 -9 5 -9 -8 0 -24 4
-35 9 -13 5 -14 9 -5 9 8 0 24 -4 35 -9z m-1985 -10 c-8 -5 -22 -9 -30 -9 -10
0 -8 3 5 9 27 12 43 12 25 0z m2037 -6 c-3 -3 -12 -4 -19 -1 -8 3 -5 6 6 6 11
1 17 -2 13 -5z m1480 -26 c-3 -8 -6 -5 -6 6 -1 11 2 17 5 13 3 -3 4 -12 1 -19z
m-1384 5 c-7 -2 -19 -2 -25 0 -7 3 -2 5 12 5 14 0 19 -2 13 -5z m325 -5 c-2
-6 -11 -13 -19 -16 -11 -3 -11 -1 1 8 13 9 12 10 -5 7 -11 -2 -19 -9 -17 -15
1 -7 -2 -12 -8 -12 -14 0 -13 13 2 28 16 16 51 16 46 0z m1421 -28 c0 -10 -3
-8 -9 5 -12 27 -12 43 0 25 5 -8 9 -22 9 -30z m507 2 c-5 -4 -66 26 -66 33 0
3 16 -3 35 -12 19 -9 33 -18 31 -21z m-3369 -4 c-3 -7 -5 -2 -5 12 0 14 2 19
5 13 2 -7 2 -19 0 -25z m1166 25 c-7 -2 -19 -2 -25 0 -7 3 -2 5 12 5 14 0 19
-2 13 -5z m50 0 c-7 -2 -19 -2 -25 0 -7 3 -2 5 12 5 14 0 19 -2 13 -5z m140 0
c-7 -2 -21 -2 -30 0 -10 3 -4 5 12 5 17 0 24 -2 18 -5z m1194 -15 c-3 -8 -6
-5 -6 6 -1 11 2 17 5 13 3 -3 4 -12 1 -19z m-1177 -4 c0 -8 -19 -13 -24 -6 -3
5 1 9 9 9 8 0 15 -2 15 -3z m1137 -26 c-3 -8 -6 -5 -6 6 -1 11 2 17 5 13 3 -3
4 -12 1 -19z m922 -4 c14 -12 -19 -1 -35 12 -18 14 -18 14 6 3 14 -6 27 -13
29 -15z m-462 -16 c-3 -8 -6 -5 -6 6 -1 11 2 17 5 13 3 -3 4 -12 1 -19z
m-2486 -25 c12 -21 36 -56 52 -78 l29 -40 -34 38 c-32 36 -83 117 -74 117 2 0
15 -17 27 -37z m-1792 22 c-9 -8 -79 -35 -79 -30 0 3 15 11 33 19 32 15 54 20
46 11z m699 -12 c-10 -2 -26 -2 -35 0 -10 3 -2 5 17 5 19 0 27 -2 18 -5z
m3489 -15 c-3 -8 -6 -5 -6 6 -1 11 2 17 5 13 3 -3 4 -12 1 -19z m643 -15 c0
-7 -39 17 -46 28 -3 6 5 3 20 -6 14 -10 26 -19 26 -22z m-4217 20 c-7 -2 -19
-2 -25 0 -7 3 -2 5 12 5 14 0 19 -2 13 -5z m183 -11 c-10 -2 -22 0 -28 6 -6 6
0 7 19 4 21 -5 23 -7 9 -10z m-239 2 c-3 -3 -12 -4 -19 -1 -8 3 -5 6 6 6 11 1
17 -2 13 -5z m-57 -14 c-8 -5 -19 -10 -25 -10 -5 0 -3 5 5 10 8 5 20 10 25 10
6 0 3 -5 -5 -10z m365 -10 c3 -6 -1 -7 -9 -4 -18 7 -21 14 -7 14 6 0 13 -4 16
-10z m3332 -12 c-3 -8 -6 -5 -6 6 -1 11 2 17 5 13 3 -3 4 -12 1 -19z m-4342 2
c-3 -5 -12 -10 -18 -10 -7 0 -6 4 3 10 19 12 23 12 15 0z m1482 -12 c-3 -8 -6
-5 -6 6 -1 11 2 17 5 13 3 -3 4 -12 1 -19z m2346 9 c3 -8 2 -20 -3 -26 -5 -9
-7 -4 -7 13 0 29 2 32 10 13z m1197 -12 c13 -14 21 -25 18 -25 -2 0 -15 11
-28 25 -13 14 -21 25 -18 25 2 0 15 -11 28 -25z m-4257 -2 c-13 -2 -33 -2 -45
0 -13 2 -3 4 22 4 25 0 35 -2 23 -4z m85 0 c-10 -2 -28 -2 -40 0 -13 2 -5 4
17 4 22 1 32 -1 23 -4z m-908 -7 c0 -2 -7 -7 -16 -10 -8 -3 -12 -2 -9 4 6 10
25 14 25 6z m258 -3 c-15 -2 -42 -2 -60 0 -18 2 -6 4 27 4 33 0 48 -2 33 -4z
m469 1 c-3 -3 -12 -4 -19 -1 -8 3 -5 6 6 6 11 1 17 -2 13 -5z m230 0 c-3 -3
-12 -4 -19 -1 -8 3 -5 6 6 6 11 1 17 -2 13 -5z m-820 -10 c-3 -3 -12 -4 -19
-1 -8 3 -5 6 6 6 11 1 17 -2 13 -5z m218 -4 c25 -11 -1 -11 -35 0 -20 6 -21 8
-5 8 11 0 29 -3 40 -8z m310 0 c-3 -5 -14 -10 -23 -10 -15 0 -15 2 -2 10 20
13 33 13 25 0z m490 -10 c10 -11 16 -20 13 -20 -3 0 -13 9 -23 20 -10 11 -16
20 -13 20 3 0 13 -9 23 -20z m3352 -2 c-3 -8 -6 -5 -6 6 -1 11 2 17 5 13 3 -3
4 -12 1 -19z m-4567 -3 c0 -2 -10 -9 -22 -15 -22 -11 -22 -10 -4 4 21 17 26
19 26 11z m5245 -74 c-3 -2 -6 -2 -7 0 -2 2 -19 22 -38 44 l-35 40 42 -39 c24
-22 40 -42 38 -45z m-3628 47 c-3 -8 -6 -5 -6 6 -1 11 2 17 5 13 3 -3 4 -12 1
-19z m-1420 6 c-3 -3 -12 -4 -19 -1 -8 3 -5 6 6 6 11 1 17 -2 13 -5z m1082
-38 c-2 -2 -13 8 -23 22 l-19 27 24 -22 c12 -12 21 -24 18 -27z m3298 12 c-3
-7 -5 -2 -5 12 0 14 2 19 5 13 2 -7 2 -19 0 -25z m-4294 15 c-7 -2 -21 -2 -30
0 -10 3 -4 5 12 5 17 0 24 -2 18 -5z m903 -24 c3 -6 -5 -3 -20 6 -14 10 -26
19 -26 22 0 7 39 -17 46 -28z m3114 21 c-8 -5 -19 -10 -25 -10 -5 0 -3 5 5 10
8 5 20 10 25 10 6 0 3 -5 -5 -10z m-2050 -116 c0 -8 -44 36 -81 81 -19 23 -9
16 24 -18 31 -31 57 -60 57 -63z m-1873 100 c-3 -3 -12 -4 -19 -1 -8 3 -5 6 6
6 11 1 17 -2 13 -5z m3550 -41 c-3 -10 -5 -2 -5 17 0 19 2 27 5 18 2 -10 2
-26 0 -35z m-3307 11 c0 -2 -9 0 -20 6 -11 6 -20 13 -20 16 0 2 9 0 20 -6 11
-6 20 -13 20 -16z m-165 -2 c-3 -3 -11 0 -18 7 -9 10 -8 11 6 5 10 -3 15 -9
12 -12z m820 -43 c20 -24 20 -24 0 -9 -11 8 -33 28 -50 44 l-30 29 30 -21 c17
-11 39 -30 50 -43z m3792 29 c-3 -7 -5 -2 -5 12 0 14 2 19 5 13 2 -7 2 -19 0
-25z m63 -12 c0 -12 -5 -7 -19 24 -11 24 -11 24 3 6 9 -11 16 -24 16 -30z
m-4450 -13 c0 -7 -39 17 -46 28 -3 6 5 3 20 -6 14 -10 26 -19 26 -22z m3553
22 c-3 -9 -8 -14 -10 -11 -3 3 -2 9 2 15 9 16 15 13 8 -4z m-2903 -20 c14 -19
14 -19 -2 -6 -10 7 -18 18 -18 24 0 6 1 8 3 6 1 -2 9 -13 17 -24z m3257 -12
c-3 -10 -5 -4 -5 12 0 17 2 24 5 18 2 -7 2 -21 0 -30z m693 17 c6 -11 8 -20 6
-20 -3 0 -10 9 -16 20 -6 11 -8 20 -6 20 3 0 10 -9 16 -20z m-4730 -16 c0 -2
-9 0 -20 6 -11 6 -20 13 -20 16 0 2 9 0 20 -6 11 -6 20 -13 20 -16z m3857 -6
c-3 -7 -5 -2 -5 12 0 14 2 19 5 13 2 -7 2 -19 0 -25z m-4587 19 c0 -2 -19 -18
-42 -36 l-43 -32 39 35 c37 34 46 40 46 33z m5257 -29 c-3 -8 -6 -5 -6 6 -1
11 2 17 5 13 3 -3 4 -12 1 -19z m60 0 c-3 -8 -6 -5 -6 6 -1 11 2 17 5 13 3 -3
4 -12 1 -19z m-4531 -19 c3 -6 -5 -3 -20 6 -14 10 -26 19 -26 22 0 7 39 -17
46 -28z m142 -9 c17 -27 10 -25 -19 6 -13 14 -17 23 -9 19 9 -3 21 -14 28 -25z
m3455 15 c-3 -9 -8 -14 -10 -11 -3 3 -2 9 2 15 9 16 15 13 8 -4z m-2872 -12
c13 -17 13 -17 -6 -3 -11 8 -22 16 -24 17 -2 2 0 3 6 3 6 0 17 -8 24 -17z
m965 -15 l29 -33 -32 29 c-31 28 -38 36 -30 36 2 0 16 -15 33 -32z m1621 0
c-3 -7 -5 -2 -5 12 0 14 2 19 5 13 2 -7 2 -19 0 -25z m-3276 -5 c13 -16 12
-17 -3 -4 -17 13 -22 21 -14 21 2 0 10 -8 17 -17z m3756 -15 c-3 -7 -5 -2 -5
12 0 14 2 19 5 13 2 -7 2 -19 0 -25z m200 -5 c-3 -10 -5 -4 -5 12 0 17 2 24 5
18 2 -7 2 -21 0 -30z m-90 -20 c-3 -10 -5 -4 -5 12 0 17 2 24 5 18 2 -7 2 -21
0 -30z m-3685 -138 c36 -46 32 -42 -82 80 -77 82 -78 84 -17 25 38 -36 82 -83
99 -105z m4548 109 c17 -31 30 -58 28 -60 -2 -2 -19 24 -37 56 -18 33 -30 60
-28 60 3 0 19 -25 37 -56z m-4525 -11 l48 -58 -51 50 c-44 42 -62 65 -49 65 2
0 25 -26 52 -57z m3323 26 c-6 -16 -12 -28 -14 -26 -5 5 13 57 20 57 3 0 0
-14 -6 -31z m-261 -16 c-3 -10 -5 -4 -5 12 0 17 2 24 5 18 2 -7 2 -21 0 -30z
m-4257 -18 c-24 -25 -46 -45 -49 -45 -3 0 15 20 39 45 24 25 46 45 49 45 3 0
-15 -20 -39 -45z m2731 18 c13 -16 12 -17 -3 -4 -17 13 -22 21 -14 21 2 0 10
-8 17 -17z m2226 -30 c-3 -10 -5 -2 -5 17 0 19 2 27 5 18 2 -10 2 -26 0 -35z
m490 15 c-3 -7 -5 -2 -5 12 0 14 2 19 5 13 2 -7 2 -19 0 -25z m80 0 c-3 -8 -6
-5 -6 6 -1 11 2 17 5 13 3 -3 4 -12 1 -19z m-3468 -38 c0 -9 -4 -8 -9 5 -5 11
-9 27 -9 35 0 9 4 8 9 -5 5 -11 9 -27 9 -35z m2668 8 c-3 -7 -5 -2 -5 12 0 14
2 19 5 13 2 -7 2 -19 0 -25z m140 -5 c-3 -10 -5 -4 -5 12 0 17 2 24 5 18 2 -7
2 -21 0 -30z m-2918 -18 c0 -5 -4 -3 -9 5 -5 8 -9 22 -9 30 0 16 17 -16 18
-35z m852 18 c13 -16 12 -17 -3 -4 -17 13 -22 21 -14 21 2 0 10 -8 17 -17z
m2736 -15 c-3 -7 -5 -2 -5 12 0 14 2 19 5 13 2 -7 2 -19 0 -25z m-920 7 c0 -8
-4 -12 -8 -9 -4 2 -11 -5 -14 -17 -4 -11 -9 -18 -12 -15 -5 5 23 56 31 56 1 0
3 -7 3 -15z m840 -7 c-3 -8 -6 -5 -6 6 -1 11 2 17 5 13 3 -3 4 -12 1 -19z
m-2597 -24 c0 -2 -9 0 -20 6 -11 6 -20 13 -20 16 0 2 9 0 20 -6 11 -6 20 -13
20 -16z m1377 4 c-3 -8 -6 -5 -6 6 -1 11 2 17 5 13 3 -3 4 -12 1 -19z m741
-38 c0 -9 -3 -7 -8 5 -5 11 -8 29 -8 40 0 16 2 15 8 -5 4 -14 8 -32 8 -40z
m-3717 33 c13 -16 12 -17 -3 -4 -17 13 -22 21 -14 21 2 0 10 -8 17 -17z m818
-23 c0 -10 -3 -8 -9 5 -12 27 -12 43 0 25 5 -8 9 -22 9 -30z m2798 18 c2 -17
0 -19 -7 -8 -5 8 -6 18 -4 22 8 12 10 10 11 -14z m670 -10 c-3 -8 -6 -5 -6 6
-1 11 2 17 5 13 3 -3 4 -12 1 -19z m-820 -10 c-3 -8 -6 -5 -6 6 -1 11 2 17 5
13 3 -3 4 -12 1 -19z m-3436 -15 c13 -16 12 -17 -3 -4 -10 7 -18 15 -18 17 0
8 8 3 21 -13z m1679 -19 c0 -2 -13 2 -30 11 -16 9 -30 18 -30 21 0 2 14 -2 30
-11 17 -9 30 -18 30 -21z m1587 -16 c-14 -24 -35 -55 -47 -68 -11 -14 -3 4 20
39 22 35 40 69 40 74 0 6 3 8 6 4 4 -3 -5 -26 -19 -49z m-2470 10 c-3 -8 -6
-5 -6 6 -1 11 2 17 5 13 3 -3 4 -12 1 -19z m2130 0 c-3 -8 -6 -5 -6 6 -1 11 2
17 5 13 3 -3 4 -12 1 -19z m218 -5 c-25 -40 -57 -73 -80 -85 -11 -5 -6 2 12
16 17 15 41 42 53 61 12 19 24 35 27 35 3 0 -3 -12 -12 -27z m199 11 c3 -8 2
-12 -4 -9 -6 3 -10 10 -10 16 0 14 7 11 14 -7z m110 0 c3 -8 2 -12 -4 -9 -6 3
-10 10 -10 16 0 14 7 11 14 -7z m155 -29 c0 -5 -4 -3 -9 5 -5 8 -9 22 -9 30 0
16 17 -16 18 -35z m-2922 13 c-3 -8 -6 -5 -6 6 -1 11 2 17 5 13 3 -3 4 -12 1
-19z m-2087 -8 c-6 -11 -13 -20 -16 -20 -2 0 0 9 6 20 6 11 13 20 16 20 2 0 0
-9 -6 -20z m1341 -12 c17 -24 18 -29 6 -19 -18 14 -42 51 -33 51 3 0 15 -15
27 -32z m1794 4 c-3 -3 -11 0 -18 7 -9 10 -8 11 6 5 10 -3 15 -9 12 -12z
m-909 -53 c7 -30 13 -61 13 -69 0 -8 -6 5 -13 30 -23 82 -28 105 -21 99 3 -4
13 -31 21 -60z m2538 45 c3 -8 2 -12 -4 -9 -6 3 -10 10 -10 16 0 14 7 11 14
-7z m117 -1 c13 -16 12 -17 -3 -4 -10 7 -18 15 -18 17 0 8 8 3 21 -13z m248
-38 c0 -5 -6 1 -14 15 -8 14 -14 30 -14 35 0 6 6 -1 14 -15 8 -14 14 -29 14
-35z m448 33 c-3 -8 -6 -5 -6 6 -1 11 2 17 5 13 3 -3 4 -12 1 -19z m90 -10
c-3 -7 -5 -2 -5 12 0 14 2 19 5 13 2 -7 2 -19 0 -25z m-2492 4 c-3 -3 -11 0
-18 7 -9 10 -8 11 6 5 10 -3 15 -9 12 -12z m-2890 -2 c-3 -5 -14 -10 -23 -9
-14 0 -13 2 3 9 27 11 27 11 20 0z m73 3 c-10 -2 -26 -2 -35 0 -10 3 -2 5 17
5 19 0 27 -2 18 -5z m100 0 c-16 -2 -40 -2 -55 0 -16 2 -3 4 27 4 30 0 43 -2
28 -4z m65 -10 c-7 -2 -19 -2 -25 0 -7 3 -2 5 12 5 14 0 19 -2 13 -5z m947
-24 c15 -28 5 -23 -15 7 -9 15 -12 23 -6 20 6 -4 16 -16 21 -27z m3470 5 c0
-2 -9 0 -20 6 -11 6 -20 13 -20 16 0 2 9 0 20 -6 11 -6 20 -13 20 -16z m-4713
10 c-3 -3 -12 -4 -19 -1 -8 3 -5 6 6 6 11 1 17 -2 13 -5z m340 0 c-3 -3 -12
-4 -19 -1 -8 3 -5 6 6 6 11 1 17 -2 13 -5z m1552 -44 c0 -9 -4 -8 -9 5 -5 11
-9 27 -9 35 0 9 4 8 9 -5 5 -11 9 -27 9 -35z m1116 32 c-3 -3 -11 0 -18 7 -9
10 -8 11 6 5 10 -3 15 -9 12 -12z m1064 -21 c-6 -18 -13 -30 -15 -28 -2 2 1
18 7 36 6 18 13 30 15 28 2 -2 -1 -18 -7 -36z m1278 7 c-3 -7 -5 -2 -5 12 0
14 2 19 5 13 2 -7 2 -19 0 -25z m-543 7 c3 -8 1 -15 -4 -15 -6 0 -10 7 -10 15
0 8 2 15 4 15 2 0 6 -7 10 -15z m-1735 -21 c14 -12 -19 -1 -35 12 -18 14 -18
14 6 3 14 -6 27 -13 29 -15z m1587 -62 c10 -7 3 -5 -16 4 -35 17 -40 22 -75
64 -11 14 1 7 26 -15 25 -22 54 -46 65 -53z m119 70 c-3 -3 -11 0 -18 7 -9 10
-8 11 6 5 10 -3 15 -9 12 -12z m-4325 -7 c14 -8 21 -14 15 -14 -5 0 -21 6 -35
14 -14 8 -20 14 -15 14 6 0 21 -6 35 -14z m852 -80 c28 -55 8 -32 -26 30 -15
28 -20 41 -11 30 9 -11 26 -38 37 -60z m1491 68 c-7 -2 -19 -2 -25 0 -7 3 -2
5 12 5 14 0 19 -2 13 -5z m312 -11 c-3 -3 -11 0 -18 7 -9 10 -8 11 6 5 10 -3
15 -9 12 -12z m1265 15 c0 -2 -12 -14 -27 -28 l-28 -24 24 28 c23 25 31 32 31
24z m-4520 -12 c0 -2 -10 -9 -22 -15 -22 -11 -22 -10 -4 4 21 17 26 19 26 11z
m690 -31 c0 -2 -13 2 -30 11 -16 9 -30 18 -30 21 0 2 14 -2 30 -11 17 -9 30
-18 30 -21z m2199 32 c-2 -2 -17 -6 -34 -10 -22 -5 -26 -4 -15 4 14 9 59 15
49 6z m144 -3 c-7 -2 -19 -2 -25 0 -7 3 -2 5 12 5 14 0 19 -2 13 -5z m1277 3
c0 -2 -8 -10 -17 -17 -16 -13 -17 -12 -4 4 13 16 21 21 21 13z m-4394 -50 c47
37 43 24 -6 -15 l-40 -32 2 48 c1 44 2 45 5 10 l4 -37 35 26z m2143 -1 c0 -5
-4 -3 -9 5 -5 8 -9 22 -9 30 0 16 17 -16 18 -35z m1058 29 c-3 -3 -12 -4 -19
-1 -8 3 -5 6 6 6 11 1 17 -2 13 -5z m213 -20 c0 -2 -9 0 -20 6 -11 6 -20 13
-20 16 0 2 9 0 20 -6 11 -6 20 -13 20 -16z m1710 7 c-5 -11 -15 -23 -21 -27
-6 -3 -3 5 6 20 20 30 30 35 15 7z m557 -78 c-2 -21 -4 -6 -4 32 0 39 2 55 4
38 2 -18 2 -50 0 -70z m-5249 80 c-10 -2 -26 -2 -35 0 -10 3 -2 5 17 5 19 0
27 -2 18 -5z m-68 -7 c0 -2 -18 -6 -39 -8 -22 -2 -37 0 -35 4 5 8 74 11 74 4z
m167 -2 c-3 -3 -12 -4 -19 -1 -8 3 -5 6 6 6 11 1 17 -2 13 -5z m2753 -9 c17
-9 30 -18 30 -21 0 -4 -59 23 -69 32 -10 9 13 3 39 -11z m1077 -7 c-3 -8 -6
-5 -6 6 -1 11 2 17 5 13 3 -3 4 -12 1 -19z m183 17 c0 -6 -56 -35 -67 -35 -4
1 8 9 27 20 39 22 40 22 40 15z m-3963 -11 c-3 -3 -12 -4 -19 -1 -8 3 -5 6 6
6 11 1 17 -2 13 -5z m863 -14 c6 -11 8 -20 6 -20 -3 0 -10 9 -16 20 -6 11 -8
20 -6 20 3 0 10 -9 16 -20z m1395 -10 c-16 -16 -31 -28 -33 -25 -4 4 48 54 57
55 3 0 -8 -13 -24 -30z m-2598 14 c-3 -3 -12 -4 -19 -1 -8 3 -5 6 6 6 11 1 17
-2 13 -5z m418 -15 c5 -5 -6 -4 -25 2 -45 15 -54 24 -15 15 17 -4 34 -12 40
-17z m280 -88 c77 -79 49 -60 -45 31 -47 46 -67 68 -45 51 22 -17 62 -54 90
-82z m1213 63 c-3 -14 -5 -12 -10 9 -3 19 -2 25 4 19 6 -6 8 -18 6 -28z m1323
19 c13 -16 12 -17 -3 -4 -17 13 -22 21 -14 21 2 0 10 -8 17 -17z m-2752 -19
c14 -12 -19 -1 -35 12 -18 14 -18 14 6 3 14 -6 27 -13 29 -15z m4314 19 c-7
-2 -19 -2 -25 0 -7 3 -2 5 12 5 14 0 19 -2 13 -5z m-4883 -13 c-8 -5 -19 -10
-25 -10 -5 0 -3 5 5 10 8 5 20 10 25 10 6 0 3 -5 -5 -10z m3385 -42 c22 -23
29 -34 16 -23 -47 38 -71 65 -58 65 2 0 21 -19 42 -42z m-2745 -4 c0 -2 -9 0
-20 6 -11 6 -20 13 -20 16 0 2 9 0 20 -6 11 -6 20 -13 20 -16z m706 -29 c21
-52 7 -38 -18 17 -11 24 -15 39 -9 33 5 -5 17 -28 27 -50z m1697 48 c3 -5 -16
-6 -41 -5 l-47 4 35 -39 35 -38 -40 35 c-22 19 -44 38 -49 42 -6 5 15 8 46 8
31 0 59 -3 61 -7z m-3123 -8 c0 -2 -10 -9 -22 -15 -22 -11 -22 -10 -4 4 21 17
26 19 26 11z m2099 -45 c0 -9 -4 -8 -9 5 -5 11 -9 27 -9 35 0 9 4 8 9 -5 5
-11 9 -27 9 -35z m1074 43 c-7 -2 -19 -2 -25 0 -7 3 -2 5 12 5 14 0 19 -2 13
-5z m1120 -13 c3 -11 1 -18 -4 -14 -5 3 -9 12 -9 20 0 20 7 17 13 -6z m1614
-2 c-3 -8 -6 -5 -6 6 -1 11 2 17 5 13 3 -3 4 -12 1 -19z m-3710 -10 c-3 -8 -6
-5 -6 6 -1 11 2 17 5 13 3 -3 4 -12 1 -19z m2201 -38 c0 -9 -3 -7 -8 5 -5 11
-8 29 -8 40 0 16 2 15 8 -5 4 -14 8 -32 8 -40z m-1442 29 c19 -11 34 -23 34
-26 0 -2 -15 5 -34 16 -19 12 -42 19 -52 15 -16 -5 -16 -4 -4 5 19 14 17 14
56 -10z m1190 -16 c-8 -15 -15 -25 -16 -21 0 12 23 58 27 54 3 -2 -2 -17 -11
-33z m-4196 24 c0 -2 -12 -14 -27 -28 l-28 -24 24 28 c23 25 31 32 31 24z
m3337 -3 c-3 -3 -12 -4 -19 -1 -8 3 -5 6 6 6 11 1 17 -2 13 -5z m-407 -8 c0
-2 -15 -13 -33 -24 -19 -11 -46 -27 -60 -37 -15 -9 -27 -15 -27 -12 0 5 110
77 117 77 2 0 3 -2 3 -4z m-2059 -38 c20 -18 26 -26 15 -17 -12 9 -32 23 -46
32 -13 10 -20 17 -14 17 6 0 26 -15 45 -32z m3476 10 c-3 -8 -6 -5 -6 6 -1 11
2 17 5 13 3 -3 4 -12 1 -19z m1210 -15 c-3 -10 -5 -4 -5 12 0 17 2 24 5 18 2
-7 2 -21 0 -30z m-2897 22 c0 -2 -13 -11 -30 -20 -38 -19 -40 -11 -2 9 31 17
32 18 32 11z m977 -107 c73 -109 93 -140 76 -123 -18 18 -164 237 -154 231 5
-3 40 -52 78 -108z m2330 90 c-3 -8 -6 -5 -6 6 -1 11 2 17 5 13 3 -3 4 -12 1
-19z m-3810 -10 c-3 -8 -6 -5 -6 6 -1 11 2 17 5 13 3 -3 4 -12 1 -19z m-2217
9 c0 -2 -15 -16 -32 -33 l-33 -29 29 33 c28 30 36 37 36 29z m1579 -67 c0 -8
-6 0 -14 19 -8 18 -15 36 -15 40 1 13 29 -45 29 -59z m2838 38 c-3 -8 -6 -5
-6 6 -1 11 2 17 5 13 3 -3 4 -12 1 -19z m-3367 -19 c15 -28 5 -23 -15 7 -9 15
-12 23 -6 20 6 -4 16 -16 21 -27z m1600 26 c0 -6 -56 -35 -67 -35 -4 1 8 9 27
20 39 22 40 22 40 15z m601 -12 c13 -16 12 -17 -3 -4 -17 13 -22 21 -14 21 2
0 10 -8 17 -17z m1266 -5 c-3 -8 -6 -5 -6 6 -1 11 2 17 5 13 3 -3 4 -12 1 -19z
m-2143 -50 c6 -4 7 -10 4 -14 -7 -7 -48 54 -48 71 1 6 8 -3 17 -20 9 -16 21
-33 27 -37z m3663 40 c-3 -8 -6 -5 -6 6 -1 11 2 17 5 13 3 -3 4 -12 1 -19z
m-3177 7 c0 -2 -10 -9 -22 -15 -22 -11 -22 -10 -4 4 21 17 26 19 26 11z
m-1849 -22 c13 -16 12 -17 -3 -4 -17 13 -22 21 -14 21 2 0 10 -8 17 -17z
m1238 -13 c11 -24 11 -24 -3 -6 -9 11 -16 24 -16 30 0 12 5 7 19 -24z m1964
15 c-3 -9 -8 -14 -10 -11 -3 3 -2 9 2 15 9 16 15 13 8 -4z m-1653 -5 c-8 -5
-19 -10 -25 -10 -5 0 -3 5 5 10 8 5 20 10 25 10 6 0 3 -5 -5 -10z m1867 -12
c-3 -8 -6 -5 -6 6 -1 11 2 17 5 13 3 -3 4 -12 1 -19z m100 -55 c-2 -16 -4 -3
-4 27 0 30 2 43 4 28 2 -16 2 -40 0 -55z m1080 15 c-2 -13 -4 -3 -4 22 0 25 2
35 4 23 2 -13 2 -33 0 -45z m-5699 8 c-18 -24 -39 -52 -46 -62 -10 -16 -11
-15 -1 6 13 27 68 100 75 100 3 0 -10 -20 -28 -44z m2882 24 c-14 -11 -29 -20
-35 -20 -5 0 4 9 20 20 38 25 48 25 15 0z m2917 -42 c-2 -13 -4 -3 -4 22 0 25
2 35 4 23 2 -13 2 -33 0 -45z m-3197 42 c-8 -5 -22 -9 -30 -9 -10 0 -8 3 5 9
27 12 43 12 25 0z m-2177 -7 c-13 -2 -33 -2 -45 0 -13 2 -3 4 22 4 25 0 35 -2
23 -4z m120 0 c-7 -2 -19 -2 -25 0 -7 3 -2 5 12 5 14 0 19 -2 13 -5z m3738
-16 c-10 -9 -11 -8 -5 6 3 10 9 15 12 12 3 -3 0 -11 -7 -18z m-1753 6 c-10 -2
-26 -2 -35 0 -10 3 -2 5 17 5 19 0 27 -2 18 -5z m-813 -89 c4 -25 3 -24 -8 6
-8 19 -17 46 -20 60 -5 19 -3 17 8 -6 7 -17 16 -44 20 -60z m646 69 c13 -16
12 -17 -3 -4 -17 13 -22 21 -14 21 2 0 10 -8 17 -17z m1340 -4 c16 -11 34 -30
40 -42 8 -18 5 -17 -13 5 -13 15 -36 34 -53 42 -16 9 -24 16 -17 16 8 0 27 -9
43 -21z m2439 -14 c0 -19 -2 -35 -4 -35 -2 0 -6 16 -8 35 -2 19 0 35 4 35 4 0
8 -16 8 -35z m-5430 15 c11 -8 7 -9 -15 -4 -37 8 -45 14 -19 14 10 0 26 -5 34
-10z m2110 5 c0 -2 -9 -9 -20 -15 -12 -6 -20 -7 -20 -1 0 5 8 12 18 14 9 3 18
5 20 6 1 0 2 -1 2 -4z m713 -28 c-15 -19 -30 -32 -32 -30 -5 3 49 63 57 63 2
0 -9 -15 -25 -33z m708 -46 c-17 -34 -33 -61 -36 -61 -3 0 10 29 27 65 18 35
34 63 36 61 2 -2 -11 -31 -27 -65z m266 47 c-3 -8 -6 -5 -6 6 -1 11 2 17 5 13
3 -3 4 -12 1 -19z m-4149 5 c-10 -2 -28 -2 -40 0 -13 2 -5 4 17 4 22 1 32 -1
23 -4z m70 0 c-10 -2 -26 -2 -35 0 -10 3 -2 5 17 5 19 0 27 -2 18 -5z m362
-13 c8 -5 11 -10 5 -10 -5 0 -17 5 -25 10 -8 5 -10 10 -5 10 6 0 17 -5 25 -10z
m1633 -39 c-2 -3 -16 8 -31 24 l-27 28 31 -24 c17 -13 30 -26 27 -28z m447 -6
c30 -30 52 -55 49 -55 -2 0 -29 25 -59 55 -30 30 -52 55 -49 55 2 0 29 -25 59
-55z m-2323 39 c-3 -3 -12 -4 -19 -1 -8 3 -5 6 6 6 11 1 17 -2 13 -5z m2173
-4 c-8 -5 -19 -10 -25 -10 -5 0 -3 5 5 10 8 5 20 10 25 10 6 0 3 -5 -5 -10z
m2967 -27 c-3 -10 -5 -4 -5 12 0 17 2 24 5 18 2 -7 2 -21 0 -30z m-5100 21
c-3 -3 -12 -4 -19 -1 -8 3 -5 6 6 6 11 1 17 -2 13 -5z m1222 -24 c11 -24 11
-24 -3 -6 -9 11 -16 24 -16 30 0 12 5 7 19 -24z m2797 3 c-7 -21 -56 -91 -56
-80 0 3 11 23 25 43 14 20 25 44 25 52 0 8 3 13 6 9 3 -3 3 -14 0 -24z m-3717
-9 c14 -12 -19 -1 -35 12 -18 14 -18 14 6 3 14 -6 27 -13 29 -15z m4898 -6
c-3 -7 -5 -2 -5 12 0 14 2 19 5 13 2 -7 2 -19 0 -25z m-5112 12 c13 -5 14 -9
5 -9 -8 0 -24 4 -35 9 -13 5 -14 9 -5 9 8 0 24 -4 35 -9z m2918 -8 c-10 -10
-20 -17 -22 -16 -6 5 20 34 30 34 5 0 1 -8 -8 -18z m77 3 c19 -22 8 -25 -12
-3 -10 10 -14 18 -9 18 5 0 14 -7 21 -15z m820 12 c0 -2 -12 -14 -27 -28 l-28
-24 24 28 c23 25 31 32 31 24z m-4564 -58 c-18 -41 -21 -29 -4 18 7 19 14 30
16 25 1 -4 -4 -24 -12 -43z m2681 45 c-3 -3 -12 -4 -19 -1 -8 3 -5 6 6 6 11 1
17 -2 13 -5z m-64 -11 c-13 -2 -35 -2 -50 0 -16 2 -5 4 22 4 28 0 40 -2 28 -4z
m-1602 -20 c13 -17 13 -17 -6 -3 -11 8 -22 16 -24 17 -2 2 0 3 6 3 6 0 17 -8
24 -17z m793 -19 c10 -37 2 -39 -11 -4 -6 17 -8 30 -3 30 4 0 11 -12 14 -26z
m1753 -36 c-2 -13 -4 -3 -4 22 0 25 2 35 4 23 2 -13 2 -33 0 -45z m424 7 l10
-20 -16 20 c-9 11 -21 29 -26 40 l-10 20 16 -20 c9 -11 21 -29 26 -40z m-224
13 c-3 -7 -5 -2 -5 12 0 14 2 19 5 13 2 -7 2 -19 0 -25z m80 -15 c-3 -10 -5
-2 -5 17 0 19 2 27 5 18 2 -10 2 -26 0 -35z m1910 15 c-3 -7 -5 -2 -5 12 0 14
2 19 5 13 2 -7 2 -19 0 -25z m100 0 c-3 -7 -5 -2 -5 12 0 14 2 19 5 13 2 -7 2
-19 0 -25z m-1342 12 c-3 -5 -11 -10 -16 -10 -6 0 -7 5 -4 10 3 6 11 10 16 10
6 0 7 -4 4 -10z m-3600 -18 c-3 -3 -11 0 -18 7 -9 10 -8 11 6 5 10 -3 15 -9
12 -12z m2110 -112 c38 -42 41 -47 11 -20 -21 19 -58 62 -83 95 -24 33 -29 42
-11 20 18 -22 55 -64 83 -95z m-1904 84 c9 -11 2 -9 -18 6 -18 13 -33 25 -33
27 0 8 38 -17 51 -33z m3135 -23 c-15 -28 -28 -51 -31 -51 -3 0 7 25 22 55 15
30 29 53 31 51 2 -2 -8 -27 -22 -55z m-3253 0 c7 -8 -7 -2 -30 14 -24 15 -43
30 -43 32 0 7 61 -31 73 -46z m2140 -71 c18 -12 41 -34 51 -49 13 -18 6 -14
-25 14 -91 82 -149 140 -149 147 0 4 20 -15 45 -41 25 -27 60 -59 78 -71z
m517 95 c14 -19 14 -19 -2 -6 -10 7 -18 18 -18 24 0 6 1 8 3 6 1 -2 9 -13 17
-24z m810 12 c-8 -7 -51 -47 -96 -88 l-81 -74 89 88 c49 48 92 87 95 87 4 0 1
-6 -7 -13z m-720 -22 c-7 -8 -16 -15 -21 -15 -5 0 -1 8 9 18 20 22 31 19 12
-3z m870 22 c0 -2 -10 -12 -22 -23 l-23 -19 19 23 c18 21 26 27 26 19z m1457
-44 c-3 -10 -5 -2 -5 17 0 19 2 27 5 18 2 -10 2 -26 0 -35z m-5782 27 c-3 -5
-27 -9 -53 -8 l-47 1 50 7 c28 4 51 8 53 8 2 1 0 -2 -3 -8z m1622 -22 c-3 -7
-5 -2 -5 12 0 14 2 19 5 13 2 -7 2 -19 0 -25z m-1559 15 c-10 -2 -26 -2 -35 0
-10 3 -2 5 17 5 19 0 27 -2 18 -5z m1469 -15 c-3 -8 -6 -5 -6 6 -1 11 2 17 5
13 3 -3 4 -12 1 -19z m4020 -10 c-3 -7 -5 -2 -5 12 0 14 2 19 5 13 2 -7 2 -19
0 -25z m-5860 -10 c-3 -7 -5 -2 -5 12 0 14 2 19 5 13 2 -7 2 -19 0 -25z m176
25 c-7 -2 -19 -2 -25 0 -7 3 -2 5 12 5 14 0 19 -2 13 -5z m3479 -72 c-3 -6
-72 61 -72 70 0 4 17 -9 38 -30 20 -20 36 -38 34 -40z m2372 45 c-3 -15 -8
-25 -11 -23 -2 3 -1 17 3 31 3 15 8 25 11 23 2 -3 1 -17 -3 -31z m-5927 18
c-3 -3 -12 -4 -19 -1 -8 3 -5 6 6 6 11 1 17 -2 13 -5z m1168 -94 c36 -41 29
-36 -28 20 -42 41 -77 76 -77 78 0 8 58 -47 105 -98z m3315 86 c0 -2 -8 -10
-17 -17 -16 -13 -17 -12 -4 4 13 16 21 21 21 13z m1167 -18 c-3 -8 -6 -5 -6 6
-1 11 2 17 5 13 3 -3 4 -12 1 -19z m-3900 -20 c-3 -7 -5 -2 -5 12 0 14 2 19 5
13 2 -7 2 -19 0 -25z m90 10 c-3 -8 -6 -5 -6 6 -1 11 2 17 5 13 3 -3 4 -12 1
-19z m-1530 -4 c-3 -3 -12 -4 -19 -1 -8 3 -5 6 6 6 11 1 17 -2 13 -5z m699
-26 l29 -33 -32 29 c-18 17 -33 31 -33 33 0 8 8 1 36 -29z m2699 12 c-10 -11
-25 -20 -34 -19 -11 0 -9 3 5 9 12 5 25 13 29 19 3 6 9 11 12 11 3 0 -2 -9
-12 -20z m735 17 c0 -2 -18 -21 -40 -42 -22 -21 -40 -36 -40 -33 0 4 17 23 38
42 36 35 42 39 42 33z m1307 -19 c-3 -8 -6 -5 -6 6 -1 11 2 17 5 13 3 -3 4
-12 1 -19z m-5490 6 c-3 -3 -12 -4 -19 -1 -8 3 -5 6 6 6 11 1 17 -2 13 -5z
m5725 -21 c-3 -16 -7 -22 -10 -15 -4 13 4 42 11 42 2 0 2 -12 -1 -27z m145
-40 c-2 -16 -4 -5 -4 22 0 28 2 40 4 28 2 -13 2 -35 0 -50z m-5937 53 c0 -2
-11 -6 -25 -8 -13 -3 -22 -1 -19 3 5 9 44 13 44 5z m3790 -40 c0 -12 -5 -7
-19 24 -11 24 -11 24 3 6 9 -11 16 -24 16 -30z m1657 12 c-3 -7 -5 -2 -5 12 0
14 2 19 5 13 2 -7 2 -19 0 -25z m264 5 c-12 -20 -14 -14 -5 12 4 9 9 14 11 11
3 -2 0 -13 -6 -23z m-5774 11 c-3 -3 -12 -4 -19 -1 -8 3 -5 6 6 6 11 1 17 -2
13 -5z m3988 -24 c-9 -16 -18 -30 -21 -30 -2 0 2 14 11 30 9 17 18 30 21 30 2
0 -2 -13 -11 -30z m-4028 14 c-3 -3 -12 -4 -19 -1 -8 3 -5 6 6 6 11 1 17 -2
13 -5z m1670 -31 c-3 -10 -5 -4 -5 12 0 17 2 24 5 18 2 -7 2 -21 0 -30z m90 5
c-3 -7 -5 -2 -5 12 0 14 2 19 5 13 2 -7 2 -19 0 -25z m1796 25 c-7 -2 -21 -2
-30 0 -10 3 -4 5 12 5 17 0 24 -2 18 -5z m-3596 -9 c-3 -3 -12 -4 -19 -1 -8 3
-5 6 6 6 11 1 17 -2 13 -5z m1018 -24 c10 -11 14 -20 9 -20 -5 0 -15 9 -22 20
-7 11 -11 20 -9 20 2 0 12 -9 22 -20z m4672 -2 c-3 -8 -6 -5 -6 6 -1 11 2 17
5 13 3 -3 4 -12 1 -19z m-113 -32 c-3 -21 -8 -35 -11 -32 -2 2 -1 20 3 40 3
21 8 35 11 32 2 -2 1 -20 -3 -40z m256 7 c-11 -17 -11 -17 -6 0 3 10 6 24 7
30 0 9 2 9 5 0 3 -7 0 -20 -6 -30z m-5955 17 c-3 -5 -14 -10 -23 -9 -14 0 -13
2 3 9 27 11 27 11 20 0z m3135 -57 c0 -2 -16 9 -35 24 -19 15 -35 31 -35 36 0
4 16 -7 35 -24 19 -18 35 -34 35 -36z m1249 19 c-24 -26 -46 -47 -48 -45 -5 4
80 93 87 93 3 0 -15 -22 -39 -48z m1658 16 c-3 -8 -6 -5 -6 6 -1 11 2 17 5 13
3 -3 4 -12 1 -19z m-2777 -34 c0 -3 -13 4 -30 16 -16 12 -30 24 -30 26 0 3 14
-4 30 -16 17 -12 30 -24 30 -26z m886 9 c-8 -15 -15 -25 -16 -21 0 12 23 58
27 54 3 -2 -2 -17 -11 -33z m1651 15 c-3 -8 -6 -5 -6 6 -1 11 2 17 5 13 3 -3
4 -12 1 -19z m-5887 2 c-8 -5 -19 -10 -25 -10 -5 0 -3 5 5 10 8 5 20 10 25 10
6 0 3 -5 -5 -10z m1391 -17 c13 -16 12 -17 -3 -4 -10 7 -18 15 -18 17 0 8 8 3
21 -13z m626 -5 c-3 -8 -6 -5 -6 6 -1 11 2 17 5 13 3 -3 4 -12 1 -19z m4260
-10 c-3 -7 -5 -2 -5 12 0 14 2 19 5 13 2 -7 2 -19 0 -25z m-160 0 c-3 -8 -6
-5 -6 6 -1 11 2 17 5 13 3 -3 4 -12 1 -19z m-4190 -25 c-3 -10 -5 -4 -5 12 0
17 2 24 5 18 2 -7 2 -21 0 -30z m-607 -18 c17 -25 29 -45 26 -45 -3 0 -19 20
-36 45 -17 25 -29 45 -26 45 3 0 19 -20 36 -45z m2020 -38 c24 -17 24 -17 -8
0 -19 10 -50 33 -70 51 l-37 33 45 -33 c25 -18 57 -41 70 -51z m66 52 c3 -6
-5 -3 -20 6 -14 10 -26 19 -26 22 0 7 39 -17 46 -28z m693 -10 c-7 -19 -16
-38 -20 -44 -5 -5 -2 12 7 38 9 27 18 46 20 44 2 -2 -1 -19 -7 -38z m1778 19
c-3 -8 -6 -5 -6 6 -1 11 2 17 5 13 3 -3 4 -12 1 -19z m134 -5 c-12 -20 -14
-14 -5 12 4 9 9 14 11 11 3 -2 0 -13 -6 -23z m-4568 -32 c27 -46 14 -38 -18
12 -16 23 -22 37 -14 30 8 -6 22 -25 32 -42z m2867 29 c-6 -11 -13 -20 -16
-20 -2 0 0 9 6 20 6 11 13 20 16 20 2 0 0 -9 -6 -20z m1957 -27 c-3 -10 -5 -4
-5 12 0 17 2 24 5 18 2 -7 2 -21 0 -30z m-4250 -50 c-2 -16 -4 -5 -4 22 0 28
2 40 4 28 2 -13 2 -35 0 -50z m1428 47 c10 -11 16 -20 13 -20 -3 0 -13 9 -23
20 -10 11 -16 20 -13 20 3 0 13 -9 23 -20z m945 -10 c-12 -16 -24 -30 -26 -30
-3 0 4 14 16 30 12 17 24 30 26 30 3 0 -4 -13 -16 -30z m-2463 -47 c-2 -16 -4
-5 -4 22 0 28 2 40 4 28 2 -13 2 -35 0 -50z m3830 45 c-3 -8 -6 -5 -6 6 -1 11
2 17 5 13 3 -3 4 -12 1 -19z m110 0 c-3 -8 -6 -5 -6 6 -1 11 2 17 5 13 3 -3 4
-12 1 -19z m124 -1 c-10 -9 -11 -8 -5 6 3 10 9 15 12 12 3 -3 0 -11 -7 -18z
m-5474 7 c-3 -3 -12 -4 -19 -1 -8 3 -5 6 6 6 11 1 17 -2 13 -5z m40 0 c-3 -3
-12 -4 -19 -1 -8 3 -5 6 6 6 11 1 17 -2 13 -5z m3716 -29 c-9 -19 -18 -33 -21
-31 -4 5 26 66 33 66 3 0 -3 -16 -12 -35z m-4504 12 c-2 -2 -22 -15 -44 -31
l-40 -27 35 30 c19 17 39 31 44 31 5 0 7 -1 5 -3z m868 -3 c-3 -3 -12 -4 -19
-1 -8 3 -5 6 6 6 11 1 17 -2 13 -5z m40 -10 c-3 -3 -12 -4 -19 -1 -8 3 -5 6 6
6 11 1 17 -2 13 -5z m5070 -16 c-3 -8 -6 -5 -6 6 -1 11 2 17 5 13 3 -3 4 -12
1 -19z m219 -5 c-8 -16 -22 -37 -31 -48 -16 -19 -17 -19 -3 5 8 14 20 35 27
48 6 12 14 22 17 22 2 0 -2 -12 -10 -27z m115 0 c-12 -20 -14 -14 -5 12 4 9 9
14 11 11 3 -2 0 -13 -6 -23z m-5331 -5 c10 -6 7 -7 -10 -2 -14 3 -32 11 -40
16 -10 6 -7 7 10 2 14 -3 32 -11 40 -16z m2781 5 c13 -16 12 -17 -3 -4 -17 13
-22 21 -14 21 2 0 10 -8 17 -17z m542 -3 c-3 -12 -8 -19 -11 -16 -5 6 5 36 12
36 2 0 2 -9 -1 -20z m2184 -2 c-3 -8 -6 -5 -6 6 -1 11 2 17 5 13 3 -3 4 -12 1
-19z m-5667 -13 c14 -8 21 -14 15 -14 -5 0 -21 6 -35 14 -14 8 -20 14 -15 14
6 0 21 -6 35 -14z m898 -10 c-3 -3 -9 2 -12 12 -6 14 -5 15 5 6 7 -7 10 -15 7
-18z m2702 21 c0 -3 -4 -8 -10 -11 -5 -3 -10 -1 -10 4 0 6 5 11 10 11 6 0 10
-2 10 -4z m-3395 -24 c-3 -3 -11 0 -18 7 -9 10 -8 11 6 5 10 -3 15 -9 12 -12z
m5052 -4 c-3 -8 -6 -5 -6 6 -1 11 2 17 5 13 3 -3 4 -12 1 -19z m486 8 c3 -8 0
-17 -7 -19 -10 -4 -12 1 -9 14 6 23 9 24 16 5z m-6268 -6 c-3 -5 -14 -10 -23
-9 -14 0 -13 2 3 9 27 11 27 11 20 0z m163 3 c-21 -2 -55 -2 -75 0 -21 2 -4 4
37 4 41 0 58 -2 38 -4z m1789 -45 c-2 -13 -4 -5 -4 17 -1 22 1 32 4 23 2 -10
2 -28 0 -40z m2316 37 c-3 -9 -8 -14 -10 -11 -3 3 -2 9 2 15 9 16 15 13 8 -4z
m-4663 2 c0 -2 -15 -16 -32 -33 l-33 -29 29 33 c28 30 36 37 36 29z m345 -7
c-3 -5 -12 -10 -18 -10 -7 0 -6 4 3 10 19 12 23 12 15 0z m308 3 c-7 -2 -19
-2 -25 0 -7 3 -2 5 12 5 14 0 19 -2 13 -5z m512 -11 c-3 -3 -11 0 -18 7 -9 10
-8 11 6 5 10 -3 15 -9 12 -12z m575 -25 c0 -16 -18 3 -23 25 -6 22 -5 22 8 4
8 -11 15 -24 15 -29z m2117 37 c-3 -3 -12 -4 -19 -1 -8 3 -5 6 6 6 11 1 17 -2
13 -5z m710 -16 c-3 -8 -6 -5 -6 6 -1 11 2 17 5 13 3 -3 4 -12 1 -19z m-3842
2 c25 -11 -1 -11 -35 0 -20 6 -21 8 -5 8 11 0 29 -3 40 -8z m300 -15 c22 -13
36 -24 30 -24 -5 0 -28 11 -50 24 -22 14 -35 25 -30 25 6 0 28 -11 50 -25z
m813 0 c-3 -3 -9 2 -12 12 -6 14 -5 15 5 6 7 -7 10 -15 7 -18z m4219 3 c-3 -8
-6 -5 -6 6 -1 11 2 17 5 13 3 -3 4 -12 1 -19z m-5782 2 c-27 -12 -43 -12 -25
0 8 5 22 9 30 9 10 0 8 -3 -5 -9z m945 -16 c0 -2 -9 0 -20 6 -11 6 -20 13 -20
16 0 2 9 0 20 -6 11 -6 20 -13 20 -16z m4947 4 c-3 -8 -6 -5 -6 6 -1 11 2 17
5 13 3 -3 4 -12 1 -19z m552 -22 c-2 -2 -13 8 -23 22 l-19 27 24 -22 c12 -12
21 -24 18 -27z m-5929 24 c18 -12 2 -12 -25 0 -13 6 -15 9 -5 9 8 0 22 -4 30
-9z m5841 -17 c-12 -20 -14 -14 -5 12 4 9 9 14 11 11 3 -2 0 -13 -6 -23z
m-6401 13 c0 -2 -7 -7 -16 -10 -8 -3 -12 -2 -9 4 6 10 25 14 25 6z m4396 -24
c-17 -16 -18 -16 -5 5 7 12 15 20 18 17 3 -2 -3 -12 -13 -22z m1604 -2 c-12
-16 -24 -30 -26 -30 -3 0 4 14 16 30 12 17 24 30 26 30 3 0 -4 -13 -16 -30z
m-5380 10 c8 -5 11 -10 5 -10 -5 0 -17 5 -25 10 -8 5 -10 10 -5 10 6 0 17 -5
25 -10z m1024 -70 c4 -24 0 -18 -14 20 -23 64 -24 75 -6 40 8 -14 16 -41 20
-60z m4696 60 c0 -11 -4 -20 -9 -20 -5 0 -7 9 -4 20 3 11 7 20 9 20 2 0 4 -9
4 -20z m-5434 -31 c8 -13 -21 1 -51 26 -19 15 -18 15 12 1 17 -9 35 -21 39
-27z m-1196 28 c0 -2 -10 -12 -22 -23 l-23 -19 19 23 c18 21 26 27 26 19z
m210 -7 c-8 -5 -19 -10 -25 -10 -5 0 -3 5 5 10 8 5 20 10 25 10 6 0 3 -5 -5
-10z m750 0 c8 -5 11 -10 5 -10 -5 0 -17 5 -25 10 -8 5 -10 10 -5 10 6 0 17
-5 25 -10z m870 -44 c0 -12 -5 -7 -19 24 -11 24 -11 24 3 6 9 -11 16 -24 16
-30z m798 13 c-6 -16 -12 -28 -14 -26 -5 5 13 57 20 57 3 0 0 -14 -6 -31z
m1909 -1 c-3 -7 -5 -2 -5 12 0 14 2 19 5 13 2 -7 2 -19 0 -25z m1560 10 c-3
-8 -6 -5 -6 6 -1 11 2 17 5 13 3 -3 4 -12 1 -19z m313 2 c-6 -11 -13 -20 -16
-20 -2 0 0 9 6 20 6 11 13 20 16 20 2 0 0 -9 -6 -20z m270 12 c0 -5 -7 -17
-15 -28 -14 -18 -14 -17 -4 9 12 27 19 34 19 19z m1329 -351 l166 -334 135
-92 c101 -69 135 -97 134 -113 -1 -32 -106 -182 -128 -182 -10 0 -78 47 -151
104 l-132 103 -333 77 c-183 42 -337 79 -341 82 -5 3 -9 10 -9 16 0 13 112
188 119 188 4 -1 102 -24 219 -53 116 -29 212 -51 212 -49 0 2 -50 90 -112
195 l-111 191 39 75 c21 41 52 92 67 113 24 34 30 38 44 26 9 -7 91 -163 182
-347z m-7839 344 c0 -2 -10 -9 -22 -15 -22 -11 -22 -10 -4 4 21 17 26 19 26
11z m4257 -17 c-3 -8 -6 -5 -6 6 -1 11 2 17 5 13 3 -3 4 -12 1 -19z m-3402 2
c3 -6 -1 -7 -9 -4 -18 7 -21 14 -7 14 6 0 13 -4 16 -10z m1642 -22 c-3 -7 -5
-2 -5 12 0 14 2 19 5 13 2 -7 2 -19 0 -25z m3546 17 c-3 -9 -8 -14 -10 -11 -3
3 -2 9 2 15 9 16 15 13 8 -4z m-5730 -2 c-7 -2 -19 -2 -25 0 -7 3 -2 5 12 5
14 0 19 -2 13 -5z m180 0 c-7 -2 -21 -2 -30 0 -10 3 -4 5 12 5 17 0 24 -2 18
-5z m751 -22 c-2 -3 -12 3 -22 13 -16 17 -16 18 5 5 12 -7 20 -15 17 -18z
m3183 -3 c-3 -7 -5 -2 -5 12 0 14 2 19 5 13 2 -7 2 -19 0 -25z m1663 29 c0 -2
-10 -12 -22 -23 l-23 -19 19 23 c18 21 26 27 26 19z m-6307 -22 c-3 -9 -8 -14
-10 -11 -3 3 -2 9 2 15 9 16 15 13 8 -4z m474 9 c-3 -3 -12 -4 -19 -1 -8 3 -5
6 6 6 11 1 17 -2 13 -5z m280 0 c-3 -3 -12 -4 -19 -1 -8 3 -5 6 6 6 11 1 17
-2 13 -5z m393 -30 c0 -2 -13 2 -30 11 -16 9 -30 18 -30 21 0 2 14 -2 30 -11
17 -9 30 -18 30 -21z m-740 16 c-8 -5 -19 -10 -25 -10 -5 0 -3 5 5 10 8 5 20
10 25 10 6 0 3 -5 -5 -10z m397 4 c-3 -3 -12 -4 -19 -1 -8 3 -5 6 6 6 11 1 17
-2 13 -5z m588 -72 c-4 -4 -105 68 -105 75 0 2 24 -13 54 -34 30 -21 53 -39
51 -41z m3072 31 c-3 -10 -5 -2 -5 17 0 19 2 27 5 18 2 -10 2 -26 0 -35z
m1959 19 c-17 -16 -18 -16 -5 5 7 12 15 20 18 17 3 -2 -3 -12 -13 -22z m-4926
-7 c14 -19 14 -19 -2 -6 -10 7 -18 18 -18 24 0 6 1 8 3 6 1 -2 9 -13 17 -24z
m937 3 c-3 -8 -6 -5 -6 6 -1 11 2 17 5 13 3 -3 4 -12 1 -19z m2320 16 c-3 -3
-12 -4 -19 -1 -8 3 -5 6 6 6 11 1 17 -2 13 -5z m99 -21 c17 -16 23 -23 15 -16
-9 6 -30 19 -46 27 -17 9 -23 16 -15 16 9 0 29 -12 46 -27z m1384 -20 c-11
-17 -11 -17 -6 0 3 10 7 26 7 35 1 15 2 15 6 0 2 -10 -1 -25 -7 -35z m451 24
c-10 -9 -11 -8 -5 6 3 10 9 15 12 12 3 -3 0 -11 -7 -18z m-5814 7 c-3 -3 -12
-4 -19 -1 -8 3 -5 6 6 6 11 1 17 -2 13 -5z m3843 2 c0 -2 -12 -11 -27 -20
l-28 -17 24 20 c23 21 31 25 31 17z m-2377 -26 c-3 -12 -8 -19 -11 -16 -5 6 5
36 12 36 2 0 2 -9 -1 -20z m4514 -2 c-3 -8 -6 -5 -6 6 -1 11 2 17 5 13 3 -3 4
-12 1 -19z m-6767 8 c0 -2 -8 -10 -17 -17 -16 -13 -17 -12 -4 4 13 16 21 21
21 13z m220 -6 c-8 -5 -19 -10 -25 -10 -5 0 -3 5 5 10 8 5 20 10 25 10 6 0 3
-5 -5 -10z m630 0 c8 -5 11 -10 5 -10 -5 0 -17 5 -25 10 -8 5 -10 10 -5 10 6
0 17 -5 25 -10z m-963 -32 c-3 -7 -5 -2 -5 12 0 14 2 19 5 13 2 -7 2 -19 0
-25z m1292 -31 c24 -20 48 -34 54 -30 6 3 7 1 3 -6 -8 -13 -35 4 -97 61 -41
39 -22 27 40 -25z m331 -14 l75 -78 -77 75 c-72 69 -83 80 -75 80 1 0 36 -35
77 -77z m2967 55 c-3 -8 -6 -5 -6 6 -1 11 2 17 5 13 3 -3 4 -12 1 -19z m-3547
-13 c28 -14 50 -28 50 -30 0 -5 -99 42 -109 51 -12 11 15 1 59 -21z m890 -24
c0 -32 -6 -24 -14 19 -4 25 -3 31 4 20 5 -8 10 -26 10 -39z m-1860 36 c0 -2
-10 -12 -22 -23 l-23 -19 19 23 c18 21 26 27 26 19z m200 -2 c0 -2 -10 -9 -22
-15 -22 -11 -22 -10 -4 4 21 17 26 19 26 11z m1757 -27 c-3 -7 -5 -2 -5 12 0
14 2 19 5 13 2 -7 2 -19 0 -25z m420 10 c-3 -8 -6 -5 -6 6 -1 11 2 17 5 13 3
-3 4 -12 1 -19z m3973 18 c0 -2 -8 -10 -17 -17 -16 -13 -17 -12 -4 4 13 16 21
21 21 13z m-1943 -113 c-2 -21 -4 -4 -4 37 0 41 2 58 4 38 2 -21 2 -55 0 -75z
m-2135 65 c-8 -8 -9 -4 -5 13 4 13 8 18 11 10 2 -7 -1 -18 -6 -23z m2453 25
c-11 -3 -29 -12 -40 -22 -20 -16 -20 -16 -1 7 11 12 29 21 40 21 20 -1 20 -2
1 -6z m-4812 -54 c-6 -6 -7 3 -4 23 4 28 6 29 9 9 2 -13 0 -27 -5 -32z m2734
29 c-3 -8 -6 -5 -6 6 -1 11 2 17 5 13 3 -3 4 -12 1 -19z m2132 -32 c-1 -17 -2
-16 -9 6 -4 14 -11 32 -15 40 -3 7 1 4 9 -6 9 -11 16 -29 15 -40z m-4649 40
c0 -2 -8 -10 -17 -17 -16 -13 -17 -12 -4 4 13 16 21 21 21 13z m1393 -131 c35
-46 26 -38 -68 65 -56 61 -59 65 -16 25 29 -27 67 -68 84 -90z m4758 86 c-22
-26 -48 -54 -58 -62 -10 -8 6 14 36 49 29 34 55 62 58 62 3 0 -13 -22 -36 -49z
m-1699 -3 c-6 -6 -7 0 -4 19 5 21 7 23 10 9 2 -10 0 -22 -6 -28z m2215 10 c-3
-7 -5 -2 -5 12 0 14 2 19 5 13 2 -7 2 -19 0 -25z m-4830 0 c-3 -8 -6 -5 -6 6
-1 11 2 17 5 13 3 -3 4 -12 1 -19z m-100 -25 c-3 -10 -5 -4 -5 12 0 17 2 24 5
18 2 -7 2 -21 0 -30z m2800 5 c-3 -7 -5 -2 -5 12 0 14 2 19 5 13 2 -7 2 -19 0
-25z m190 -5 c-3 -10 -5 -4 -5 12 0 17 2 24 5 18 2 -7 2 -21 0 -30z m-3626
-100 c49 -47 89 -89 89 -93 0 -5 -35 26 -77 69 -43 43 -98 95 -123 115 -28 24
-32 30 -12 16 19 -12 74 -61 123 -107z m1119 90 c-11 -17 -11 -17 -6 0 3 10 6
24 7 30 0 9 2 9 5 0 3 -7 0 -20 -6 -30z m200 17 c-6 -11 -13 -20 -16 -20 -2 0
0 9 6 20 6 11 13 20 16 20 2 0 0 -9 -6 -20z m3487 -2 c-3 -8 -6 -5 -6 6 -1 11
2 17 5 13 3 -3 4 -12 1 -19z m-5977 8 c0 -2 -8 -10 -17 -17 -16 -13 -17 -12
-4 4 13 16 21 21 21 13z m1245 -26 c10 -11 16 -20 13 -20 -3 0 -13 9 -23 20
-10 11 -16 20 -13 20 3 0 13 -9 23 -20z m-1320 -36 c-22 -19 -55 -51 -73 -72
-24 -27 -29 -29 -17 -9 16 25 114 117 125 116 3 0 -13 -15 -35 -35z m2615 -13
c-28 -56 -35 -52 -8 4 12 24 23 43 26 41 2 -2 -6 -22 -18 -45z m2160 29 c-6
-11 -13 -20 -16 -20 -2 0 0 9 6 20 6 11 13 20 16 20 2 0 0 -9 -6 -20z m-173
-22 c-3 -7 -5 -2 -5 12 0 14 2 19 5 13 2 -7 2 -19 0 -25z m2190 10 c-3 -8 -6
-5 -6 6 -1 11 2 17 5 13 3 -3 4 -12 1 -19z m-5132 -8 c10 -11 16 -20 13 -20
-3 0 -13 9 -23 20 -10 11 -16 20 -13 20 3 0 13 -9 23 -20z m332 -132 c-2 -29
-3 -6 -3 52 0 58 1 81 3 53 2 -29 2 -77 0 -105z m-627 117 c13 -14 21 -25 18
-25 -2 0 -15 11 -28 25 -13 14 -21 25 -18 25 2 0 15 -11 28 -25z m883 -5 c-3
-12 -8 -19 -11 -16 -5 6 5 36 12 36 2 0 2 -9 -1 -20z m2284 -2 c-3 -8 -6 -5
-6 6 -1 11 2 17 5 13 3 -3 4 -12 1 -19z m186 15 c-7 -2 -19 -2 -25 0 -7 3 -2
5 12 5 14 0 19 -2 13 -5z m-2193 -7 c0 -2 -8 -10 -17 -17 -16 -13 -17 -12 -4
4 13 16 21 21 21 13z m-194 -43 c-8 -15 -15 -25 -16 -21 0 12 23 58 27 54 3
-2 -2 -17 -11 -33z m2304 2 l25 -30 -27 24 c-16 14 -28 29 -28 34 0 6 1 8 3 6
1 -2 13 -17 27 -34z m1560 28 c0 -5 -17 -21 -38 -37 l-37 -29 34 36 c36 39 41
42 41 30z m-1663 -50 c-3 -10 -5 -4 -5 12 0 17 2 24 5 18 2 -7 2 -21 0 -30z
m-3107 -13 c30 -43 18 -37 -16 7 -15 20 -23 33 -16 29 6 -3 21 -20 32 -36z
m1050 10 c-11 -16 -26 -33 -32 -36 -7 -4 1 9 16 29 34 44 46 50 16 7z m3531
-1 c-5 -13 -10 -19 -10 -12 -1 15 10 45 15 40 3 -2 0 -15 -5 -28z m543 6 c-9
-14 -18 -25 -21 -25 -5 0 5 18 20 38 17 22 18 13 1 -13z m-4954 -15 c12 -16
19 -30 16 -30 -2 0 -14 14 -26 30 -12 17 -19 30 -16 30 2 0 14 -13 26 -30z
m297 8 c-3 -8 -6 -5 -6 6 -1 11 2 17 5 13 3 -3 4 -12 1 -19z m673 -20 c-23
-35 -23 -31 -1 15 8 15 16 25 19 22 2 -2 -5 -19 -18 -37z m1867 10 c-3 -7 -5
-2 -5 12 0 14 2 19 5 13 2 -7 2 -19 0 -25z m358 12 c-3 -5 -12 -10 -18 -10 -7
0 -6 4 3 10 19 12 23 12 15 0z m1972 -12 c-3 -8 -6 -5 -6 6 -1 11 2 17 5 13 3
-3 4 -12 1 -19z m-2020 -4 c-3 -3 -12 -4 -19 -1 -8 3 -5 6 6 6 11 1 17 -2 13
-5z m-4399 -11 c-10 -2 -28 -2 -40 0 -13 2 -5 4 17 4 22 1 32 -1 23 -4z m185
0 c-7 -2 -19 -2 -25 0 -7 3 -2 5 12 5 14 0 19 -2 13 -5z m1662 -43 c-14 -27
-28 -50 -30 -50 -3 0 6 23 20 50 14 28 28 50 30 50 3 0 -6 -22 -20 -50z m3932
28 c-3 -8 -6 -5 -6 6 -1 11 2 17 5 13 3 -3 4 -12 1 -19z m-5877 2 c-34 -11
-60 -11 -35 0 11 5 29 8 40 8 16 0 15 -2 -5 -8z m390 0 c11 -8 7 -9 -15 -4
-37 8 -45 14 -19 14 10 0 26 -5 34 -10z m1655 -33 c-8 -21 -18 -37 -20 -37 -3
0 2 16 10 36 8 20 15 39 15 42 0 3 2 3 5 0 3 -3 -2 -21 -10 -41z m4225 23 c-6
-11 -13 -20 -16 -20 -2 0 0 9 6 20 6 11 13 20 16 20 2 0 0 -9 -6 -20z m237 -2
c-3 -8 -6 -5 -6 6 -1 11 2 17 5 13 3 -3 4 -12 1 -19z m-176 -15 c-12 -20 -14
-14 -5 12 4 9 9 14 11 11 3 -2 0 -13 -6 -23z m-6700 -10 c-12 -20 -14 -14 -5
12 4 9 9 14 11 11 3 -2 0 -13 -6 -23z m1590 10 c13 -16 12 -17 -3 -4 -10 7
-18 15 -18 17 0 8 8 3 21 -13z m893 -61 c-80 -77 -263 -212 -215 -159 14 15
29 27 36 27 14 0 159 116 210 169 21 23 42 41 45 41 3 -1 -31 -35 -76 -78z
m2183 46 c-3 -7 -5 -2 -5 12 0 14 2 19 5 13 2 -7 2 -19 0 -25z m-100 0 c-3 -8
-6 -5 -6 6 -1 11 2 17 5 13 3 -3 4 -12 1 -19z m-3670 6 c-3 -3 -12 -4 -19 -1
-8 3 -5 6 6 6 11 1 17 -2 13 -5z m609 -36 l29 -33 -32 29 c-18 17 -33 31 -33
33 0 8 8 1 36 -29z m268 16 c3 -8 2 -12 -4 -9 -6 3 -10 10 -10 16 0 14 7 11
14 -7z m4459 -4 c-3 -12 -8 -19 -11 -16 -5 6 5 36 12 36 2 0 2 -9 -1 -20z
m627 -27 c-11 -17 -11 -17 -6 0 3 10 7 26 7 35 1 15 2 15 6 0 2 -10 -1 -25 -7
-35z m-5890 27 c8 -5 11 -10 5 -10 -5 0 -17 5 -25 10 -8 5 -10 10 -5 10 6 0
17 -5 25 -10z m671 -45 l10 -20 -16 20 c-9 11 -21 29 -26 40 l-10 20 16 -20
c9 -11 21 -29 26 -40z m5049 47 c0 -5 -7 -17 -15 -28 -14 -18 -14 -17 -4 9 12
27 19 34 19 19z m-4683 -49 c-3 -10 -5 -2 -5 17 0 19 2 27 5 18 2 -10 2 -26 0
-35z m616 23 c-10 -13 -20 -22 -22 -20 -4 4 29 44 36 44 2 0 -4 -11 -14 -24z
m1955 -57 l-3 -64 -5 72 c-3 40 -1 68 3 64 4 -4 7 -37 5 -72z m-4399 68 c-2
-2 -28 -26 -58 -53 -30 -27 -48 -40 -41 -29 12 20 87 85 98 85 3 0 3 -1 1 -3z
m841 -7 c8 -5 11 -10 5 -10 -5 0 -17 5 -25 10 -8 5 -10 10 -5 10 6 0 17 -5 25
-10z m5059 -29 c-6 -18 -13 -30 -15 -28 -2 2 1 18 7 36 6 18 13 30 15 28 2 -2
-1 -18 -7 -36z m499 9 c-22 -30 -35 -41 -22 -17 9 16 36 47 41 47 2 0 -6 -13
-19 -30z m-4188 13 c0 -5 -10 -19 -21 -33 l-20 -25 16 33 c15 30 25 41 25 25z
m-1325 -13 c3 -6 -1 -7 -9 -4 -18 7 -21 14 -7 14 6 0 13 -4 16 -10z m855 -25
c0 -5 -5 -3 -10 5 -5 8 -10 20 -10 25 0 6 5 3 10 -5 5 -8 10 -19 10 -25z
m2757 -7 c-3 -7 -5 -2 -5 12 0 14 2 19 5 13 2 -7 2 -19 0 -25z m-3572 12 c3
-6 -1 -7 -9 -4 -18 7 -21 14 -7 14 6 0 13 -4 16 -10z m1002 -37 c-3 -10 -5 -2
-5 17 0 19 2 27 5 18 2 -10 2 -26 0 -35z m-542 17 c10 -11 16 -20 13 -20 -3 0
-13 9 -23 20 -10 11 -16 20 -13 20 3 0 13 -9 23 -20z m686 2 c-5 -10 -28 -38
-51 -62 -39 -43 -39 -42 7 17 50 65 61 76 44 45z m339 15 c0 -1 -28 -29 -62
-62 l-63 -60 60 63 c55 58 65 67 65 59z m3610 -34 c-11 -17 -11 -17 -6 0 3 10
6 24 7 30 0 9 2 9 5 0 3 -7 0 -20 -6 -30z m-5040 1 c0 -2 -9 0 -20 6 -11 6
-20 13 -20 16 0 2 9 0 20 -6 11 -6 20 -13 20 -16z m837 -6 c-3 -8 -6 -5 -6 6
-1 11 2 17 5 13 3 -3 4 -12 1 -19z m-319 -13 c-3 -3 -9 2 -12 12 -6 14 -5 15
5 6 7 -7 10 -15 7 -18z m662 6 c-5 -11 -15 -23 -21 -27 -6 -3 -3 5 6 20 20 30
30 35 15 7z m-1145 -9 c-3 -3 -11 0 -18 7 -9 10 -8 11 6 5 10 -3 15 -9 12 -12z
m410 -12 c10 -11 16 -20 13 -20 -3 0 -13 9 -23 20 -10 11 -16 20 -13 20 3 0
13 -9 23 -20z m344 -12 c6 -18 7 -28 2 -23 -10 12 -25 55 -18 55 3 0 10 -15
16 -32z m4092 5 c-12 -20 -14 -14 -5 12 4 9 9 14 11 11 3 -2 0 -13 -6 -23z
m-4049 -10 c-3 -16 -7 -22 -10 -15 -4 13 4 42 11 42 2 0 2 -12 -1 -27z m2685
-20 c-3 -10 -5 -2 -5 17 0 19 2 27 5 18 2 -10 2 -26 0 -35z m2157 8 c-4 -17
-9 -30 -11 -27 -3 2 -2 19 2 36 9 41 17 33 9 -9z m-6001 -40 c37 -38 67 -72
67 -76 0 -4 -36 -118 -80 -253 -44 -135 -79 -246 -78 -247 2 -1 108 40 237 91
l234 93 26 -20 c40 -32 131 -120 131 -127 0 -9 -483 -557 -558 -635 -31 -31
-61 -57 -68 -57 -15 0 -144 119 -144 132 0 6 30 43 68 82 123 130 284 316 273
316 -5 0 -89 -25 -185 -55 -96 -30 -186 -55 -199 -55 -29 0 -57 24 -57 47 0
14 71 263 106 372 8 25 13 46 11 47 -1 1 -89 -81 -195 -182 -167 -161 -194
-183 -211 -174 -30 16 -131 139 -130 158 0 9 40 51 87 93 48 42 198 176 335
298 136 121 251 221 256 221 4 0 38 -31 74 -69z m408 52 c13 -17 13 -17 -6 -3
-11 8 -22 16 -24 17 -2 2 0 3 6 3 6 0 17 -8 24 -17z m5667 -60 c-2 -64 -2 -65
-5 -15 -3 32 -8 50 -14 46 -6 -3 -5 3 3 15 7 12 14 21 15 21 2 0 2 -30 1 -67z
m-5200 32 c-3 -3 -9 2 -12 12 -6 14 -5 15 5 6 7 -7 10 -15 7 -18z m129 3 c-3
-8 -6 -5 -6 6 -1 11 2 17 5 13 3 -3 4 -12 1 -19z m1083 18 c0 -2 -12 -11 -27
-20 l-28 -17 24 20 c23 21 31 25 31 17z m3257 -18 c-3 -8 -6 -5 -6 6 -1 11 2
17 5 13 3 -3 4 -12 1 -19z m283 -1 c-59 -54 -161 -137 -168 -137 -4 1 9 13 28
28 19 15 60 51 92 80 32 28 61 52 65 52 4 0 -3 -10 -17 -23z m-5090 -83 c23
-25 14 -20 -25 15 -83 75 -97 90 -50 54 22 -17 56 -48 75 -69z m3197 64 c-3
-7 -5 -2 -5 12 0 14 2 19 5 13 2 -7 2 -19 0 -25z m2011 12 c-7 -10 -14 -17
-17 -15 -4 4 18 35 25 35 2 0 -1 -9 -8 -20z m-4903 -30 c21 -22 37 -40 34 -40
-3 0 -23 18 -44 40 -21 22 -37 40 -34 40 3 0 23 -18 44 -40z m297 21 c5 9 6
-1 2 -26 -8 -48 -14 -58 -14 -22 0 14 -2 31 -3 39 -2 7 -2 9 1 4 2 -4 9 -2 14
5z m-242 -36 c0 -5 -5 -3 -10 5 -5 8 -10 20 -10 25 0 6 5 3 10 -5 5 -8 10 -19
10 -25z m720 32 c0 -2 -10 -12 -22 -23 l-23 -19 19 23 c18 21 26 27 26 19z
m405 -7 c-3 -5 -12 -10 -18 -10 -7 0 -6 4 3 10 19 12 23 12 15 0z m4025 7 c0
-2 -10 -12 -22 -23 l-23 -19 19 23 c18 21 26 27 26 19z m-4730 -10 c0 -2 -10
-12 -22 -23 l-23 -19 19 23 c18 21 26 27 26 19z m780 0 c0 -2 -15 -16 -32 -33
l-33 -29 29 33 c28 30 36 37 36 29z m-2973 -39 c-3 -7 -5 -2 -5 12 0 14 2 19
5 13 2 -7 2 -19 0 -25z m1901 1 c-3 -8 -7 -3 -11 10 -4 17 -3 21 5 13 5 -5 8
-16 6 -23z m962 26 c0 -2 -10 -9 -22 -15 -22 -11 -22 -10 -4 4 21 17 26 19 26
11z m1737 -17 c-3 -8 -6 -5 -6 6 -1 11 2 17 5 13 3 -3 4 -12 1 -19z m1444 -1
c-10 -9 -11 -8 -5 6 3 10 9 15 12 12 3 -3 0 -11 -7 -18z m549 20 c0 -2 -10
-12 -22 -23 l-23 -19 19 23 c18 21 26 27 26 19z m-4150 -22 c0 -5 -94 -75
-120 -90 -26 -14 -4 5 57 50 62 47 63 47 63 40z m-2403 -47 c-3 -8 -6 -5 -6 6
-1 11 2 17 5 13 3 -3 4 -12 1 -19z m2067 3 c3 -5 -1 -14 -8 -20 -12 -10 -13
-8 -9 8 6 23 9 25 17 12z m632 0 c-6 -9 -46 -22 -46 -15 0 3 10 9 23 14 29 11
29 11 23 1z m2232 -26 c-6 -14 -13 -23 -15 -21 -5 5 15 46 22 46 3 0 -1 -11
-7 -25z m1562 21 c0 -2 -8 -10 -17 -17 -16 -13 -17 -12 -4 4 13 16 21 21 21
13z m417 -48 c-2 -13 -4 -5 -4 17 -1 22 1 32 4 23 2 -10 2 -28 0 -40z m-5412
-38 c44 -44 77 -80 75 -80 -3 0 -41 36 -85 80 -44 44 -77 80 -75 80 3 0 41
-36 85 -80z m372 58 c-3 -8 -6 -5 -6 6 -1 11 2 17 5 13 3 -3 4 -12 1 -19z
m2763 -15 c-11 -17 -11 -17 -6 0 3 10 6 24 7 30 0 9 2 9 5 0 3 -7 0 -20 -6
-30z m-1993 21 c-3 -3 -12 -4 -19 -1 -8 3 -5 6 6 6 11 1 17 -2 13 -5z m2338
-34 c-9 -41 -17 -33 -9 9 4 17 9 30 11 27 3 -2 2 -19 -2 -36z m976 -7 c-11
-21 -20 -35 -21 -31 0 12 33 78 38 74 2 -2 -6 -21 -17 -43z m1558 -32 c28 -32
51 -65 51 -73 0 -7 -43 -56 -95 -108 -52 -52 -95 -99 -95 -105 1 -5 27 -39 59
-75 l58 -64 88 82 c48 45 94 82 101 82 17 0 104 -107 104 -128 0 -9 -37 -54
-82 -99 l-83 -83 73 -73 73 -72 112 118 c62 65 117 117 124 117 19 0 123 -122
123 -144 0 -23 -342 -372 -374 -382 -23 -8 -9 -22 -405 409 -135 148 -253 279
-261 293 -15 23 -12 27 164 203 145 146 183 178 197 171 9 -5 40 -36 68 -69z
m-4934 59 c-3 -5 -16 -10 -28 -9 -20 1 -20 2 3 9 14 4 26 8 28 9 2 1 0 -3 -3
-9z m3690 -6 c-26 -20 -55 -36 -55 -30 0 5 63 46 70 46 3 -1 -4 -8 -15 -16z
m133 -40 c-29 -25 -62 -50 -73 -55 -11 -6 -6 0 10 13 17 13 46 37 65 55 19 18
39 33 43 33 5 0 -15 -21 -45 -46z m-3923 26 c-3 -5 -16 -10 -28 -9 -20 1 -20
2 3 9 14 4 26 8 28 9 2 1 0 -3 -3 -9z m42 4 c-3 -3 -12 -4 -19 -1 -8 3 -5 6 6
6 11 1 17 -2 13 -5z m2381 -29 c-6 -14 -13 -23 -15 -21 -5 5 15 46 22 46 3 0
-1 -11 -7 -25z m-2688 -5 c-14 -11 -29 -20 -35 -20 -5 0 4 9 20 20 38 25 48
25 15 0z m197 14 c-3 -3 -12 -4 -19 -1 -8 3 -5 6 6 6 11 1 17 -2 13 -5z m303
-4 c-8 -5 -19 -10 -25 -10 -5 0 -3 5 5 10 8 5 20 10 25 10 6 0 3 -5 -5 -10z
m3489 -4 c-10 -9 -69 -36 -69 -32 0 7 52 35 64 36 5 0 7 -2 5 -4z m700 -72
c-6 -8 -35 -33 -63 -56 -50 -40 -50 -40 7 13 48 45 58 60 59 89 l1 35 4 -33
c3 -18 -1 -40 -8 -48z m-4269 46 c-8 -5 -22 -9 -30 -9 -10 0 -8 3 5 9 27 12
43 12 25 0z m1861 -17 c-12 -20 -14 -14 -5 12 4 9 9 14 11 11 3 -2 0 -13 -6
-23z m1624 -2 c-6 -5 -25 10 -25 20 0 5 6 4 14 -3 8 -7 12 -15 11 -17z m-3960
10 c-6 -10 -63 -41 -74 -41 -6 1 71 50 77 50 2 0 1 -4 -3 -9z m418 -8 c-7 -2
-19 -2 -25 0 -7 3 -2 5 12 5 14 0 19 -2 13 -5z m2013 -30 c-8 -15 -15 -25 -16
-21 0 12 23 58 27 54 3 -2 -2 -17 -11 -33z m284 17 c-6 -11 -13 -20 -16 -20
-2 0 0 9 6 20 6 11 13 20 16 20 2 0 0 -9 -6 -20z m-2993 -57 c-2 -16 -4 -5 -4
22 0 28 2 40 4 28 2 -13 2 -35 0 -50z m440 61 c-3 -3 -12 -4 -19 -1 -8 3 -5 6
6 6 11 1 17 -2 13 -5z m203 2 c0 -2 -11 -6 -25 -8 -13 -3 -22 -1 -19 3 5 9 44
13 44 5z m2423 -11 c-3 -9 -8 -14 -10 -11 -3 3 -2 9 2 15 9 16 15 13 8 -4z
m-2516 -2 c-20 -2 -52 -2 -70 0 -17 2 0 4 38 4 39 0 53 -2 32 -4z m-322 -43
c10 -11 16 -20 13 -20 -3 0 -13 9 -23 20 -10 11 -16 20 -13 20 3 0 13 -9 23
-20z m2357 -12 c-8 -8 -9 -4 -5 13 4 13 8 18 11 10 2 -7 -1 -18 -6 -23z m361
-23 c-15 -30 -29 -53 -31 -51 -4 5 46 106 53 106 3 0 -7 -25 -22 -55z m93 28
c-8 -16 -27 -41 -41 -58 -16 -19 -12 -8 12 28 40 61 53 74 29 30z m-355 -16
c-10 -9 -11 -8 -5 6 3 10 9 15 12 12 3 -3 0 -11 -7 -18z m-2905 -29 l29 -33
-32 29 c-31 28 -38 36 -30 36 2 0 16 -15 33 -32z m4544 28 c0 -2 -7 -7 -16
-10 -8 -3 -12 -2 -9 4 6 10 25 14 25 6z m-4040 -41 c13 -14 21 -25 18 -25 -2
0 -15 11 -28 25 -13 14 -21 25 -18 25 2 0 15 -11 28 -25z m2382 -7 c-8 -8 -9
-4 -5 13 4 13 8 18 11 10 2 -7 -1 -18 -6 -23z m1588 12 c-8 -5 -19 -10 -25
-10 -5 0 -3 5 5 10 8 5 20 10 25 10 6 0 3 -5 -5 -10z m-4263 -32 c-3 -8 -6 -5
-6 6 -1 11 2 17 5 13 3 -3 4 -12 1 -19z m-147 -13 c13 -14 21 -25 18 -25 -2 0
-15 11 -28 25 -13 14 -21 25 -18 25 2 0 15 -11 28 -25z m4347 19 c-3 -3 -12
-4 -19 -1 -8 3 -5 6 6 6 11 1 17 -2 13 -5z m-68 -39 c-12 -19 -23 -35 -25 -35
-2 0 4 16 13 35 9 19 20 35 25 35 4 0 -2 -16 -13 -35z m751 32 c0 -2 -10 -12
-22 -23 l-23 -19 19 23 c18 21 26 27 26 19z m-4610 -132 c69 -69 122 -125 120
-125 -3 0 -61 56 -130 125 -69 69 -122 125 -120 125 3 0 61 -56 130 -125z
m239 -62 c2 -2 2 -5 0 -8 -3 -2 -50 42 -105 98 l-99 102 100 -95 c55 -52 101
-96 104 -97z m2471 184 c0 -2 -10 -12 -22 -23 l-23 -19 19 23 c18 21 26 27 26
19z m960 -56 c-28 -56 -35 -52 -8 4 12 24 23 43 26 41 2 -2 -6 -22 -18 -45z
m750 45 c0 -2 -7 -7 -16 -10 -8 -3 -12 -2 -9 4 6 10 25 14 25 6z m4 -31 c-4
-8 -11 -15 -16 -15 -6 0 -5 6 2 15 7 8 14 15 16 15 2 0 1 -7 -2 -15z m136 12
c0 -2 -10 -12 -22 -23 l-23 -19 19 23 c18 21 26 27 26 19z m-214 -26 c-7 -10
-76 -52 -76 -46 0 4 72 55 78 55 2 0 1 -4 -2 -9z m-2084 -33 c-8 -8 -9 -4 -5
13 4 13 8 18 11 10 2 -7 -1 -18 -6 -23z m105 10 c-3 -8 -6 -5 -6 6 -1 11 2 17
5 13 3 -3 4 -12 1 -19z m-2677 -2 c-7 -7 -13 -7 -20 0 -6 6 -3 10 10 10 13 0
16 -4 10 -10z m4820 10 c0 -2 -17 -16 -37 -31 l-38 -26 35 30 c34 31 40 35 40
27z m-4669 -43 c-12 -20 -14 -14 -5 12 4 9 9 14 11 11 3 -2 0 -13 -6 -23z
m2722 0 c-7 -2 -19 -2 -25 0 -7 3 -2 5 12 5 14 0 19 -2 13 -5z m1070 -8 c-3
-9 -8 -14 -10 -11 -3 3 -2 9 2 15 9 16 15 13 8 -4z m627 10 c0 -2 -10 -9 -22
-15 -22 -11 -22 -10 -4 4 21 17 26 19 26 11z m-1903 -27 c-3 -8 -6 -5 -6 6 -1
11 2 17 5 13 3 -3 4 -12 1 -19z m303 -13 c18 -19 32 -36 29 -37 -2 -2 -20 14
-40 34 -21 21 -34 38 -30 38 4 0 22 -16 41 -35z m-160 21 c0 -2 -8 -10 -17
-17 -16 -13 -17 -12 -4 4 13 16 21 21 21 13z m1925 -6 c-3 -5 -27 -24 -53 -41
-54 -37 -46 -25 13 20 43 33 49 36 40 21z m-235 -15 c0 -2 -10 -9 -22 -15 -22
-11 -22 -10 -4 4 21 17 26 19 26 11z m-4366 -21 c3 -8 2 -12 -4 -9 -6 3 -10
10 -10 16 0 14 7 11 14 -7z m3947 -7 c-10 -9 -11 -8 -5 6 3 10 9 15 12 12 3
-3 0 -11 -7 -18z m494 -13 c-34 -29 -91 -69 -75 -51 12 13 105 86 110 86 3 0
-13 -16 -35 -35z m-1918 -11 c-3 -10 -5 -4 -5 12 0 17 2 24 5 18 2 -7 2 -21 0
-30z m1793 23 c0 -2 -7 -7 -16 -10 -8 -3 -12 -2 -9 4 6 10 25 14 25 6z m-1893
-28 c-3 -8 -6 -5 -6 6 -1 11 2 17 5 13 3 -3 4 -12 1 -19z m351 6 c12 -8 22
-19 22 -25 0 -5 -9 0 -20 11 -11 11 -29 20 -39 20 -43 0 -68 -82 -35 -114 8
-9 12 -16 7 -16 -36 0 -44 73 -12 114 23 30 45 33 77 10z m2449 -276 c126
-161 261 -334 301 -384 40 -50 72 -96 72 -102 0 -6 -31 -38 -70 -71 l-70 -60
-38 13 c-22 8 -149 70 -283 138 -134 67 -248 125 -252 126 -4 2 58 -95 138
-216 80 -121 145 -227 145 -235 0 -19 -138 -119 -157 -115 -7 2 -132 182 -278
401 -207 310 -264 401 -255 412 6 7 40 32 75 55 l64 41 271 -136 c150 -75 274
-135 276 -132 2 2 -62 90 -144 196 -81 105 -154 203 -162 217 -15 25 -14 27
49 85 35 32 70 59 77 59 7 0 116 -132 241 -292z m-5117 226 c0 -3 -13 4 -30
16 -16 12 -30 24 -30 26 0 3 14 -4 30 -16 17 -12 30 -24 30 -26z m3630 -4
c-11 -22 -23 -40 -25 -40 -3 0 4 18 15 40 11 22 23 40 25 40 3 0 -4 -18 -15
-40z m181 17 c-10 -9 -11 -8 -5 6 3 10 9 15 12 12 3 -3 0 -11 -7 -18z m-1494
-39 c-2 -13 -4 -5 -4 17 -1 22 1 32 4 23 2 -10 2 -28 0 -40z m450 0 c-2 -13
-4 -5 -4 17 -1 22 1 32 4 23 2 -10 2 -28 0 -40z m1593 48 c0 -2 -12 -11 -27
-20 l-28 -17 24 20 c23 21 31 25 31 17z m-3910 -73 c0 -7 -58 36 -66 49 -4 7
9 -1 29 -16 20 -16 37 -30 37 -33z m3600 47 c-8 -5 -22 -9 -30 -9 -10 0 -8 3
5 9 27 12 43 12 25 0z m-4546 -51 c73 -57 79 -73 43 -122 -13 -18 -128 -174
-254 -347 -127 -173 -239 -323 -250 -332 -19 -17 -21 -16 -69 13 -62 39 -104
78 -104 98 0 19 541 740 556 740 6 1 41 -22 78 -50z m527 34 c13 -16 12 -17
-3 -4 -17 13 -22 21 -14 21 2 0 10 -8 17 -17z m2386 -20 c-3 -10 -5 -4 -5 12
0 17 2 24 5 18 2 -7 2 -21 0 -30z m-2072 -66 c22 -15 36 -27 32 -27 -12 0 -86
53 -127 90 -34 31 -34 31 10 -2 25 -19 63 -47 85 -61z m3440 74 c-3 -6 14 -12
37 -14 l43 -4 -47 -1 c-45 -2 -58 5 -41 21 10 10 15 8 8 -2z m468 -19 c-27
-20 -131 -79 -121 -67 9 9 131 84 138 84 3 0 -5 -7 -17 -17z m-1741 -37 c9
-20 9 -20 -6 -1 -9 11 -16 27 -15 35 0 14 1 14 6 1 3 -8 10 -24 15 -35z m168
41 c0 -2 -8 -10 -17 -17 -16 -13 -17 -12 -4 4 13 16 21 21 21 13z m-2550 -32
c0 -2 -9 0 -20 6 -11 6 -20 13 -20 16 0 2 9 0 20 -6 11 -6 20 -13 20 -16z
m381 -10 c9 -11 2 -9 -18 6 -18 13 -33 25 -33 27 0 8 38 -17 51 -33z m3082 21
c-3 -9 -8 -14 -10 -11 -3 3 -2 9 2 15 9 16 15 13 8 -4z m557 11 c0 -2 -7 -7
-16 -10 -8 -3 -12 -2 -9 4 6 10 25 14 25 6z m-50 -25 c-8 -5 -26 -11 -40 -15
-21 -5 -20 -3 5 9 32 15 60 20 35 6z m-3920 -27 c0 -2 -9 0 -20 6 -11 6 -20
13 -20 16 0 2 9 0 20 -6 11 -6 20 -13 20 -16z m2247 4 c-3 -8 -6 -5 -6 6 -1
11 2 17 5 13 3 -3 4 -12 1 -19z m-1816 -50 l24 -20 -31 17 c-17 10 -41 26 -55
37 l-24 20 31 -17 c17 -10 41 -26 55 -37z m1719 22 c0 -16 -4 -30 -8 -30 -5 0
-7 14 -4 30 2 17 6 30 8 30 2 0 4 -13 4 -30z m-2115 10 c3 -6 -1 -7 -9 -4 -18
7 -21 14 -7 14 6 0 13 -4 16 -10z m2515 6 c0 -2 -8 -10 -17 -17 -16 -13 -17
-12 -4 4 13 16 21 21 21 13z m1267 -2 c-3 -3 -12 -4 -19 -1 -8 3 -5 6 6 6 11
1 17 -2 13 -5z m-1570 -41 c-3 -10 -5 -4 -5 12 0 17 2 24 5 18 2 -7 2 -21 0
-30z m128 27 c3 -6 -1 -7 -9 -4 -18 7 -21 14 -7 14 6 0 13 -4 16 -10z m995
-10 c-6 -11 -13 -20 -16 -20 -2 0 0 9 6 20 6 11 13 20 16 20 2 0 0 -9 -6 -20z
m407 14 c-3 -3 -12 -4 -19 -1 -8 3 -5 6 6 6 11 1 17 -2 13 -5z m-37 -8 c0 -2
-9 -6 -20 -9 -11 -3 -20 -1 -20 4 0 5 9 9 20 9 11 0 20 -2 20 -4z m175 -6 c-3
-5 -12 -10 -18 -10 -7 0 -6 4 3 10 19 12 23 12 15 0z m-378 -32 c-3 -7 -5 -2
-5 12 0 14 2 19 5 13 2 -7 2 -19 0 -25z m116 25 c-13 -2 -33 -2 -45 0 -13 2
-3 4 22 4 25 0 35 -2 23 -4z m-3508 -41 c-3 -3 -11 0 -18 7 -9 10 -8 11 6 5
10 -3 15 -9 12 -12z m181 -6 c27 -14 46 -25 41 -25 -9 -1 -97 40 -97 45 0 7 4
5 56 -20z m1774 20 c0 -2 -7 -7 -16 -10 -8 -3 -12 -2 -9 4 6 10 25 14 25 6z
m1240 -16 c-6 -11 -13 -20 -16 -20 -2 0 0 9 6 20 6 11 13 20 16 20 2 0 0 -9
-6 -20z m-1294 -5 c-11 -8 -25 -15 -30 -15 -6 1 0 7 14 15 32 19 40 18 16 0z
m-1861 -13 c-3 -3 -11 0 -18 7 -9 10 -8 11 6 5 10 -3 15 -9 12 -12z m405 -38
c0 -2 -13 2 -30 11 -16 9 -30 18 -30 21 0 2 14 -2 30 -11 17 -9 30 -18 30 -21z
m1657 -11 c-3 -10 -5 -2 -5 17 0 19 2 27 5 18 2 -10 2 -26 0 -35z m1300 15
c-3 -7 -5 -2 -5 12 0 14 2 19 5 13 2 -7 2 -19 0 -25z m-1592 13 c-11 -5 -36
-11 -55 -14 -35 -6 -34 -6 5 8 43 14 84 19 50 6z m192 -33 c-3 -7 -5 -2 -5 12
0 14 2 19 5 13 2 -7 2 -19 0 -25z m1553 12 c-19 -11 -39 -19 -45 -19 -5 0 6 8
25 19 19 11 40 19 45 19 6 0 -6 -8 -25 -19z m-3395 -10 c3 -6 -1 -7 -9 -4 -18
7 -21 14 -7 14 6 0 13 -4 16 -10z m1538 3 c-7 -2 -19 -2 -25 0 -7 3 -2 5 12 5
14 0 19 -2 13 -5z m-2122 -36 c58 -33 110 -88 153 -161 51 -84 48 -95 -29
-140 -35 -21 -69 -34 -76 -31 -6 4 -26 30 -44 59 -67 104 -124 128 -173 71
-41 -49 -28 -82 93 -238 104 -135 94 -300 -25 -411 -119 -111 -293 -94 -443
44 -62 57 -132 178 -122 210 3 11 34 36 68 56 71 42 78 40 120 -32 52 -90 117
-144 172 -144 39 0 85 50 85 92 0 36 -11 55 -82 147 -128 167 -139 305 -35
418 67 73 120 94 223 89 55 -2 82 -9 115 -29z m786 27 c-3 -3 -12 -4 -19 -1
-8 3 -5 6 6 6 11 1 17 -2 13 -5z m1216 -1 c-7 -2 -21 -2 -30 0 -10 3 -4 5 12
5 17 0 24 -2 18 -5z m44 1 c-3 -3 -12 -4 -19 -1 -8 3 -5 6 6 6 11 1 17 -2 13
-5z m1700 -53 c-3 -10 -5 -7 -6 7 0 12 -5 22 -11 22 -5 0 -7 7 -3 17 5 13 8
12 15 -7 5 -13 7 -31 5 -39z m-3117 39 c8 -5 11 -10 5 -10 -5 0 -17 5 -25 10
-8 5 -10 10 -5 10 6 0 17 -5 25 -10z m1267 4 c-3 -3 -12 -4 -19 -1 -8 3 -5 6
6 6 11 1 17 -2 13 -5z m453 -4 c-8 -5 -19 -10 -25 -10 -5 0 -3 5 5 10 8 5 20
10 25 10 6 0 3 -5 -5 -10z m-1675 -20 c3 -5 2 -10 -4 -10 -5 0 -13 5 -16 10
-3 6 -2 10 4 10 5 0 13 -4 16 -10z m1620 0 c-3 -5 -16 -10 -28 -9 -20 1 -20 2
3 9 14 4 26 8 28 9 2 1 0 -3 -3 -9z m1255 -10 c-6 -11 -13 -20 -16 -20 -2 0 0
9 6 20 6 11 13 20 16 20 2 0 0 -9 -6 -20z m320 10 c-8 -5 -19 -10 -25 -10 -5
0 -3 5 5 10 8 5 20 10 25 10 6 0 3 -5 -5 -10z m-2073 -6 c-3 -3 -12 -4 -19 -1
-8 3 -5 6 6 6 11 1 17 -2 13 -5z m440 -10 c-3 -3 -12 -4 -19 -1 -8 3 -5 6 6 6
11 1 17 -2 13 -5z m-1487 -14 c8 -5 11 -10 5 -10 -5 0 -17 5 -25 10 -8 5 -10
10 -5 10 6 0 17 -5 25 -10z m1437 4 c-3 -3 -12 -4 -19 -1 -8 3 -5 6 6 6 11 1
17 -2 13 -5z m1511 -16 c-7 -13 -11 -26 -10 -30 1 -3 -6 -9 -15 -12 -14 -6
-14 -4 -1 16 8 13 18 29 22 36 13 22 17 13 4 -10z m-1575 5 c-13 -2 -33 -2
-45 0 -13 2 -3 4 22 4 25 0 35 -2 23 -4z m270 -8 c-3 -9 -8 -14 -10 -11 -3 3
-2 9 2 15 9 16 15 13 8 -4z m103 -22 c-8 -15 -15 -25 -16 -21 0 12 23 58 27
54 3 -2 -2 -17 -11 -33z m-1660 2 c32 -13 52 -24 44 -24 -15 0 -120 47 -109
48 3 1 32 -10 65 -24z m2684 5 c-6 -11 -13 -20 -16 -20 -2 0 0 9 6 20 6 11 13
20 16 20 2 0 0 -9 -6 -20z m240 16 c0 -2 -7 -7 -16 -10 -8 -3 -12 -2 -9 4 6
10 25 14 25 6z m-2830 -56 c8 -5 11 -10 5 -10 -5 0 -17 5 -25 10 -8 5 -10 10
-5 10 6 0 17 -5 25 -10z m1425 -27 c-9 -21 -21 -42 -27 -48 -7 -7 -7 -2 1 12
6 12 15 33 21 47 5 14 12 26 15 26 3 0 -2 -17 -10 -37z m469 -18 c-16 -25 -32
-45 -36 -45 -3 0 8 22 25 49 18 26 34 47 36 45 2 -2 -10 -24 -25 -49z m1564 3
c45 -75 392 -784 392 -802 0 -14 -70 -57 -137 -85 -31 -13 -33 -12 -245 145
-117 86 -223 166 -235 177 -13 11 -23 18 -23 15 0 -2 18 -47 41 -99 83 -192
151 -370 146 -383 -8 -19 -174 -73 -186 -61 -5 6 -57 131 -115 279 -59 148
-133 333 -166 412 -33 79 -60 153 -60 163 0 27 126 86 154 72 12 -5 120 -86
241 -179 121 -93 221 -168 223 -167 2 2 -49 107 -113 234 -63 128 -113 236
-110 241 8 13 137 90 150 90 6 0 25 -24 43 -52z m-1608 29 c0 -2 -12 -14 -27
-28 l-28 -24 24 28 c23 25 31 32 31 24z m-1760 -17 c8 -5 11 -10 5 -10 -5 0
-17 5 -25 10 -8 5 -10 10 -5 10 6 0 17 -5 25 -10z m60 -20 c18 -12 2 -12 -25
0 -13 6 -15 9 -5 9 8 0 22 -4 30 -9z m54 -19 c4 -5 -3 -7 -14 -4 -23 6 -26 13
-6 13 8 0 17 -4 20 -9z m1566 -41 c-17 -22 -37 -43 -43 -47 -6 -4 6 14 27 40
21 26 40 47 43 47 3 0 -10 -18 -27 -40z m-250 26 c0 -3 -4 -8 -10 -11 -5 -3
-10 -1 -10 4 0 6 5 11 10 11 6 0 10 -2 10 -4z m947 -2 c-3 -3 -12 -4 -19 -1
-8 3 -5 6 6 6 11 1 17 -2 13 -5z m-2883 -93 c316 -128 316 -128 315 -148 0
-10 -15 -47 -33 -83 -38 -75 -41 -76 -144 -35 -34 14 -64 25 -65 25 -2 0 -64
-151 -137 -336 -74 -185 -141 -339 -148 -341 -16 -6 -134 42 -165 67 l-22 18
67 164 c37 89 97 235 133 323 37 88 67 166 68 173 1 7 -33 28 -78 48 -44 20
-84 40 -89 45 -14 13 51 169 71 169 3 0 105 -40 227 -89z m726 79 c18 -12 2
-12 -25 0 -13 6 -15 9 -5 9 8 0 22 -4 30 -9z m1071 -17 c-12 -20 -14 -14 -5
12 4 9 9 14 11 11 3 -2 0 -13 -6 -23z m1006 11 c-3 -3 -12 -4 -19 -1 -8 3 -5
6 6 6 11 1 17 -2 13 -5z m-2030 -10 c-3 -3 -12 -4 -19 -1 -8 3 -5 6 6 6 11 1
17 -2 13 -5z m1143 -2 c0 -5 -7 -17 -15 -28 -14 -18 -14 -17 -4 9 12 27 19 34
19 19z m332 -14 c-7 -7 -12 -8 -12 -2 0 14 12 26 19 19 2 -3 -1 -11 -7 -17z
m475 6 c-3 -3 -12 -4 -19 -1 -8 3 -5 6 6 6 11 1 17 -2 13 -5z m-1870 -10 c-3
-3 -12 -4 -19 -1 -8 3 -5 6 6 6 11 1 17 -2 13 -5z m1820 0 c-3 -3 -12 -4 -19
-1 -8 3 -5 6 6 6 11 1 17 -2 13 -5z m-1774 -11 c-7 -2 -19 -2 -25 0 -7 3 -2 5
12 5 14 0 19 -2 13 -5z m1730 0 c-7 -2 -19 -2 -25 0 -7 3 -2 5 12 5 14 0 19
-2 13 -5z m-1686 -9 c-3 -3 -12 -4 -19 -1 -8 3 -5 6 6 6 11 1 17 -2 13 -5z
m1273 2 c0 -2 -8 -10 -17 -17 -16 -13 -17 -12 -4 4 13 16 21 21 21 13z m-1190
-16 c20 -6 21 -8 5 -8 -11 0 -31 4 -45 8 -20 6 -21 8 -5 8 11 0 31 -4 45 -8z
m1497 4 c-3 -3 -12 -4 -19 -1 -8 3 -5 6 6 6 11 1 17 -2 13 -5z m-50 -10 c-3
-3 -12 -4 -19 -1 -8 3 -5 6 6 6 11 1 17 -2 13 -5z m-1380 -10 c-3 -3 -12 -4
-19 -1 -8 3 -5 6 6 6 11 1 17 -2 13 -5z m1283 -4 c0 -5 -15 -9 -32 -9 l-33 1
30 8 c17 4 31 8 33 9 1 0 2 -3 2 -9z m-1133 -16 c-3 -3 -12 -4 -19 -1 -8 3 -5
6 6 6 11 1 17 -2 13 -5z m508 -23 c-3 -6 -11 -11 -16 -11 -5 0 -4 6 3 14 14
16 24 13 13 -3z m129 4 c3 -9 0 -15 -9 -15 -9 0 -12 6 -9 15 4 8 7 15 9 15 2
0 5 -7 9 -15z m309 8 c-7 -2 -19 -2 -25 0 -7 3 -2 5 12 5 14 0 19 -2 13 -5z
m-776 -9 c-3 -3 -12 -4 -19 -1 -8 3 -5 6 6 6 11 1 17 -2 13 -5z m610 0 c-3 -3
-12 -4 -19 -1 -8 3 -5 6 6 6 11 1 17 -2 13 -5z m46 -1 c-7 -2 -19 -2 -25 0 -7
3 -2 5 12 5 14 0 19 -2 13 -5z m-475 -10 c-10 -2 -26 -2 -35 0 -10 3 -2 5 17
5 19 0 27 -2 18 -5z m55 0 c-7 -2 -19 -2 -25 0 -7 3 -2 5 12 5 14 0 19 -2 13
-5z m60 0 c-7 -2 -21 -2 -30 0 -10 3 -4 5 12 5 17 0 24 -2 18 -5z m244 1 c-3
-3 -12 -4 -19 -1 -8 3 -5 6 6 6 11 1 17 -2 13 -5z m1222 -88 c16 -19 41 -96
127 -389 72 -245 76 -264 72 -336 -6 -90 -28 -141 -88 -195 -50 -45 -108 -71
-191 -86 -156 -28 -288 55 -339 214 -7 22 -44 175 -81 340 -79 347 -81 322 35
345 51 10 70 11 80 1 8 -6 47 -143 86 -303 39 -161 80 -311 91 -334 47 -99
184 -92 203 10 7 40 7 38 -94 395 -46 161 -80 295 -77 298 9 9 130 53 148 53
9 1 22 -5 28 -13z m-2654 -35 c39 -10 124 -31 190 -46 66 -15 125 -32 132 -39
10 -9 8 -27 -6 -82 -22 -84 -27 -94 -49 -94 -15 0 -200 42 -243 55 -13 4 -21
-12 -39 -80 -14 -51 -19 -89 -14 -94 5 -5 54 -20 108 -34 55 -15 104 -31 109
-36 12 -12 -9 -112 -29 -138 -11 -16 -20 -15 -124 11 -90 23 -114 26 -120 15
-7 -11 -50 -169 -50 -184 0 -3 8 -5 18 -5 35 -1 256 -60 268 -72 10 -10 10
-27 -2 -83 -21 -102 -22 -102 -144 -72 -239 61 -371 101 -380 116 -5 10 -1 39
11 76 11 33 62 209 114 390 53 182 103 349 111 373 19 50 32 52 139 23z m603
-131 c149 -22 201 -41 260 -94 55 -50 83 -118 84 -209 1 -147 -40 -231 -139
-281 -18 -9 -33 -20 -33 -24 0 -4 25 -79 56 -167 30 -88 56 -167 57 -175 2
-13 -15 -15 -101 -14 -56 1 -105 4 -108 7 -3 3 -25 81 -48 173 -39 159 -43
168 -69 177 -16 5 -30 7 -32 5 -2 -2 -13 -73 -26 -158 -12 -85 -27 -161 -33
-168 -10 -10 -28 -10 -92 -1 -43 6 -85 17 -91 23 -10 9 -6 61 22 251 90 614
107 694 148 680 7 -3 72 -14 145 -25z m1367 -10 c3 -6 39 -209 80 -453 59
-353 71 -445 61 -455 -19 -19 -143 -37 -160 -22 -15 12 -34 104 -67 325 -11
77 -24 154 -28 170 l-8 30 -13 -45 c-26 -95 -90 -284 -101 -296 -15 -18 -63
-18 -78 -1 -6 8 -47 81 -91 162 l-80 149 3 -269 2 -270 -92 -3 -93 -3 -1 68
c0 37 -2 75 -3 83 -2 8 -6 187 -10 398 -6 313 -5 383 6 386 7 3 43 7 80 10 80
7 63 25 191 -203 51 -90 97 -165 102 -165 6 -1 41 90 78 201 65 189 71 202 95
206 55 8 121 7 127 -3z"/>
<path d="M5335 8923 c6 -5 44 -17 85 -27 125 -28 205 -63 294 -128 51 -37 67
-36 31 2 -73 76 -227 146 -347 156 -47 4 -69 3 -63 -3z"/>
<path d="M4999 8828 c-52 -4 -151 -18 -220 -33 -170 -36 -368 -72 -407 -74 -7
-1 -10 -6 -6 -12 9 -16 130 -3 299 31 228 47 323 60 450 60 149 0 287 -22 376
-59 73 -31 192 -110 212 -142 19 -30 29 -22 12 10 -22 43 -118 119 -200 158
-114 54 -302 76 -516 61z"/>
<path d="M3845 8688 c-57 -9 -85 -22 -85 -38 0 -4 26 -3 58 2 88 15 211 1 345
-38 34 -10 16 14 -25 34 -84 38 -199 54 -293 40z"/>
<path d="M5130 8683 c-89 -7 -205 -27 -320 -55 -123 -30 -218 -64 -208 -73 3
-3 70 10 149 29 189 46 333 66 460 66 175 -1 292 -42 387 -136 39 -40 52 -48
52 -34 0 26 -86 109 -147 142 -87 48 -231 71 -373 61z"/>
<path d="M3840 8564 c-8 -2 -32 -5 -52 -9 -68 -11 -40 -25 50 -25 88 0 212
-24 286 -55 60 -25 40 4 -25 38 -61 31 -207 60 -259 51z"/>
<path d="M5234 8420 c-22 -4 -119 -37 -215 -73 -216 -80 -338 -117 -405 -124
-71 -8 -98 18 -109 103 -4 32 -9 63 -12 68 -13 20 -32 -43 -33 -104 0 -93 32
-159 97 -197 44 -26 56 -28 143 -28 109 1 161 13 405 92 206 67 286 75 370 34
64 -32 120 -83 162 -148 40 -63 47 -68 68 -46 14 14 16 29 12 78 -13 142 -86
256 -201 315 -61 31 -78 35 -155 37 -47 1 -104 -2 -127 -7z"/>
<path d="M4977 8050 c-108 -34 -170 -91 -208 -190 -22 -59 -24 -104 -5 -122
10 -9 11 -21 3 -48 -22 -79 17 -192 90 -262 117 -113 328 -142 480 -68 93 46
146 118 178 240 53 204 -76 411 -286 459 -69 16 -187 12 -252 -9z m268 -72
c76 -24 145 -79 178 -142 18 -34 22 -57 22 -141 0 -84 -4 -107 -23 -147 -48
-97 -142 -157 -254 -162 -212 -11 -375 129 -379 325 -2 89 56 189 139 241 84
52 208 62 317 26z"/>
<path d="M5135 7787 c-58 -58 -60 -164 -3 -212 41 -34 73 -32 113 8 58 58 60
164 3 212 -41 34 -73 32 -113 -8z"/>
<path d="M3864 8020 c-18 -4 -48 -17 -67 -29 -156 -96 -196 -352 -80 -509 43
-58 82 -85 153 -106 80 -24 160 -7 205 45 20 22 20 22 0 15 -47 -18 -123 -18
-175 -1 -181 60 -233 323 -92 468 92 94 275 71 380 -49 38 -42 43 -45 38 -22
-23 129 -208 225 -362 188z"/>
<path d="M4060 7797 c-90 -45 -95 -216 -7 -247 63 -21 127 46 127 132 0 63
-21 103 -61 117 -18 6 -32 11 -33 11 -1 0 -12 -6 -26 -13z"/>
<path d="M5658 7638 c-50 -18 -30 -28 55 -28 74 1 80 2 63 15 -11 8 -30 15
-42 15 -12 0 -28 2 -36 4 -7 3 -25 0 -40 -6z"/>
<path d="M5643 7544 c-7 -3 -13 -10 -13 -15 0 -6 6 -9 13 -8 11 3 58 -6 100
-17 22 -7 22 13 -1 25 -23 12 -84 21 -99 15z"/>
<path d="M3945 7334 c-27 -7 -75 -15 -105 -17 -61 -4 -100 -19 -81 -31 22 -14
118 -18 152 -7 36 12 98 56 89 64 -3 2 -27 -2 -55 -9z"/>
<path d="M4935 7281 c12 -21 105 -64 174 -82 112 -29 239 -21 296 18 17 11 5
13 -85 9 -116 -5 -177 3 -290 40 -79 26 -105 30 -95 15z"/>
<path d="M3642 6975 c4 -4 3 -14 -3 -21 -14 -17 -3 -68 12 -58 6 4 7 9 3 13
-14 10 -16 32 -4 46 8 10 7 15 -2 21 -7 4 -10 4 -6 -1z"/>
<path d="M3439 8773 c-13 -17 -13 -17 6 -3 11 8 22 16 24 17 2 2 0 3 -6 3 -6
0 -17 -8 -24 -17z"/>
<path d="M6669 7715 c-69 -22 -172 -115 -271 -245 -146 -193 -154 -239 -28
-176 40 20 77 33 82 30 6 -4 5 -10 -3 -15 -11 -6 -10 -12 4 -27 42 -47 3 -165
-80 -243 l-47 -44 39 -3 c95 -8 191 129 208 297 6 58 -17 124 -54 155 l-29 25
67 54 c38 30 82 62 99 70 31 16 32 16 42 -11 16 -43 39 -124 47 -162 3 -19 9
-44 12 -55 l6 -20 8 20 c13 33 10 176 -5 240 -14 59 -14 60 10 86 13 14 21 28
17 32 -11 11 -74 7 -124 -8z"/>
<path d="M4825 6150 c-3 -5 -1 -10 4 -10 6 0 11 5 11 10 0 6 -2 10 -4 10 -3 0
-8 -4 -11 -10z"/>
<path d="M4293 5995 c0 -8 4 -12 9 -9 5 3 6 10 3 15 -9 13 -12 11 -12 -6z"/>
<path d="M5305 5465 c-27 -11 -192 -109 -202 -119 -3 -2 15 0 39 5 83 18 213
94 200 116 -5 8 -15 8 -37 -2z"/>
<path d="M5576 5447 c3 -10 9 -15 12 -12 3 3 0 11 -7 18 -10 9 -11 8 -5 -6z"/>
<path d="M4980 5316 c0 -2 8 -10 18 -17 15 -13 16 -12 3 4 -13 16 -21 21 -21
13z"/>
<path d="M4946 5288 c3 -5 10 -6 15 -3 13 9 11 12 -6 12 -8 0 -12 -4 -9 -9z"/>
<path d="M5305 5230 c-38 -38 -73 -66 -78 -63 -6 3 -7 1 -3 -5 3 -5 -19 -33
-50 -60 -38 -34 -55 -56 -52 -69 8 -40 96 10 161 92 36 46 101 164 94 171 -2
2 -34 -28 -72 -66z"/>
<path d="M4159 5223 c-13 -16 -12 -17 4 -4 16 13 21 21 13 21 -2 0 -10 -8 -17
-17z"/>
<path d="M4809 5223 c-13 -16 -12 -17 4 -4 16 13 21 21 13 21 -2 0 -10 -8 -17
-17z"/>
<path d="M5383 5215 c0 -8 4 -12 9 -9 5 3 6 10 3 15 -9 13 -12 11 -12 -6z"/>
<path d="M4320 5126 c0 -2 8 -10 18 -17 15 -13 16 -12 3 4 -13 16 -21 21 -21
13z"/>
<path d="M4466 5038 c3 -5 10 -6 15 -3 13 9 11 12 -6 12 -8 0 -12 -4 -9 -9z"/>
<path d="M4506 5038 c3 -5 10 -6 15 -3 13 9 11 12 -6 12 -8 0 -12 -4 -9 -9z"/>
<path d="M4656 5013 c-6 -14 -5 -15 5 -6 7 7 10 15 7 18 -3 3 -9 -2 -12 -12z"/>
<path d="M5500 4986 c0 -2 8 -10 18 -17 15 -13 16 -12 3 4 -13 16 -21 21 -21
13z"/>
<path d="M4495 4970 c-3 -6 1 -7 9 -4 18 7 21 14 7 14 -6 0 -13 -4 -16 -10z"/>
<path d="M4577 4959 c7 -7 15 -10 18 -7 3 3 -2 9 -12 12 -14 6 -15 5 -6 -5z"/>
<path d="M4635 4891 c-3 -5 -2 -12 3 -15 5 -3 9 1 9 9 0 17 -3 19 -12 6z"/>
<path d="M5360 4816 c0 -2 8 -10 18 -17 15 -13 16 -12 3 4 -13 16 -21 21 -21
13z"/>
<path d="M5179 4733 c-13 -16 -12 -17 4 -4 16 13 21 21 13 21 -2 0 -10 -8 -17
-17z"/>
<path d="M5490 4675 c0 -8 -4 -15 -10 -15 -5 0 -10 -8 -9 -17 0 -12 2 -13 6
-5 4 10 8 10 21 0 13 -11 15 -10 10 9 -3 12 -1 24 5 26 6 2 3 6 -6 10 -11 4
-17 1 -17 -8z"/>
<path d="M5286 4598 c4 -24 8 -55 8 -70 1 -14 4 -24 8 -22 4 3 10 -7 14 -21 9
-36 24 -31 24 10 0 40 -37 145 -51 145 -6 0 -7 -17 -3 -42z"/>
<path d="M5447 4633 c-11 -10 -8 -93 3 -93 6 0 10 23 10 50 0 51 -1 55 -13 43z"/>
<path d="M5130 4569 c0 -6 25 -37 57 -68 62 -62 85 -56 33 9 -34 43 -90 80
-90 59z"/>
<path d="M5363 4555 c0 -8 4 -12 9 -9 5 3 6 10 3 15 -9 13 -12 11 -12 -6z"/>
<path d="M5220 4546 c0 -2 8 -10 18 -17 15 -13 16 -12 3 4 -13 16 -21 21 -21
13z"/>
<path d="M5509 4533 c-13 -16 -12 -17 4 -4 9 7 17 15 17 17 0 8 -8 3 -21 -13z"/>
<path d="M5263 4415 c0 -8 4 -12 9 -9 5 3 6 10 3 15 -9 13 -12 11 -12 -6z"/>
<path d="M5386 4364 c-3 -9 -6 -34 -6 -57 0 -55 17 -35 22 26 3 47 -4 62 -16
31z"/>
<path d="M5300 4346 c0 -30 26 -81 34 -68 3 6 4 16 2 24 -2 7 -7 25 -10 41 -8
33 -26 36 -26 3z"/>
<path d="M5436 4312 c-3 -5 1 -9 9 -9 8 0 12 4 9 9 -3 4 -7 8 -9 8 -2 0 -6 -4
-9 -8z"/>
<path d="M5395 4251 c-3 -5 -2 -12 3 -15 5 -3 9 1 9 9 0 17 -3 19 -12 6z"/>
<path d="M4235 1316 c-9 -24 -35 -193 -35 -223 0 -38 21 -53 75 -53 79 0 125
53 125 144 0 62 -14 92 -52 112 -45 24 -108 35 -113 20z"/>
</g>
</svg>
